<?xml version="1.0" encoding="utf-8" standalone="no"?>
<!DOCTYPE svg PUBLIC "-//W3C//DTD SVG 1.1//EN"
  "http://www.w3.org/Graphics/SVG/1.1/DTD/svg11.dtd">
<svg xmlns:xlink="http://www.w3.org/1999/xlink" width="784.8pt" height="460.076406pt" viewBox="0 0 784.8 460.076406" xmlns="http://www.w3.org/2000/svg" version="1.1">
 <metadata>
  <rdf:RDF xmlns:dc="http://purl.org/dc/elements/1.1/" xmlns:cc="http://creativecommons.org/ns#" xmlns:rdf="http://www.w3.org/1999/02/22-rdf-syntax-ns#">
   <cc:Work>
    <dc:type rdf:resource="http://purl.org/dc/dcmitype/StillImage"/>
    <dc:date>2026-06-30T00:45:50.943138</dc:date>
    <dc:format>image/svg+xml</dc:format>
    <dc:creator>
     <cc:Agent>
      <dc:title>Matplotlib v3.11.0, https://matplotlib.org/</dc:title>
     </cc:Agent>
    </dc:creator>
   </cc:Work>
  </rdf:RDF>
 </metadata>
 <defs>
  <style type="text/css">*{stroke-linejoin: round; stroke-linecap: butt}</style>
 </defs>
 <g id="figure_1">
  <g id="patch_1">
   <path d="M 0 460.076406 
L 784.8 460.076406 
L 784.8 0 
L 0 0 
z
" style="fill: #ffffff"/>
  </g>
  <g id="axes_1">
   <g id="patch_2">
    <path d="M 21.2 421.875625 
L 777.6 421.875625 
L 777.6 39.984824 
L 21.2 39.984824 
z
" style="fill: #ffffff"/>
   </g>
   <g id="matplotlib.axis_1">
    <g id="xtick_1">
     <g id="line2d_1">
      <defs>
       <path id="md79b34dfef" d="M 0 0 
L 0 3.5 
" style="stroke: #000000; stroke-width: 0.8"/>
      </defs>
      <g>
       <use xlink:href="#md79b34dfef" x="50.292308" y="421.875625" style="stroke: #000000; stroke-width: 0.8"/>
      </g>
     </g>
     <g id="text_1">
      <!-- 0.0 -->
      <g transform="translate(42.340745 436.473281) scale(0.1 -0.1)">
       <defs>
        <path id="DejaVuSans-13" d="M 2034 4250 
Q 1547 4250 1301 3770 
Q 1056 3291 1056 2328 
Q 1056 1369 1301 889 
Q 1547 409 2034 409 
Q 2525 409 2770 889 
Q 3016 1369 3016 2328 
Q 3016 3291 2770 3770 
Q 2525 4250 2034 4250 
z
M 2034 4750 
Q 2819 4750 3233 4129 
Q 3647 3509 3647 2328 
Q 3647 1150 3233 529 
Q 2819 -91 2034 -91 
Q 1250 -91 836 529 
Q 422 1150 422 2328 
Q 422 3509 836 4129 
Q 1250 4750 2034 4750 
z
" transform="scale(0.015625)"/>
        <path id="DejaVuSans-11" d="M 684 794 
L 1344 794 
L 1344 0 
L 684 0 
L 684 794 
z
" transform="scale(0.015625)"/>
       </defs>
       <use xlink:href="#DejaVuSans-13"/>
       <use xlink:href="#DejaVuSans-11" transform="translate(63.625 0)"/>
       <use xlink:href="#DejaVuSans-13" transform="translate(95.40625 0)"/>
      </g>
     </g>
    </g>
    <g id="xtick_2">
     <g id="line2d_2">
      <g>
       <use xlink:href="#md79b34dfef" x="199.038714" y="421.875625" style="stroke: #000000; stroke-width: 0.8"/>
      </g>
     </g>
     <g id="text_2">
      <!-- 0.2 -->
      <g transform="translate(191.087151 436.473281) scale(0.1 -0.1)">
       <defs>
        <path id="DejaVuSans-15" d="M 1228 531 
L 3431 531 
L 3431 0 
L 469 0 
L 469 531 
Q 828 903 1448 1529 
Q 2069 2156 2228 2338 
Q 2531 2678 2651 2914 
Q 2772 3150 2772 3378 
Q 2772 3750 2511 3984 
Q 2250 4219 1831 4219 
Q 1534 4219 1204 4116 
Q 875 4013 500 3803 
L 500 4441 
Q 881 4594 1212 4672 
Q 1544 4750 1819 4750 
Q 2544 4750 2975 4387 
Q 3406 4025 3406 3419 
Q 3406 3131 3298 2873 
Q 3191 2616 2906 2266 
Q 2828 2175 2409 1742 
Q 1991 1309 1228 531 
z
" transform="scale(0.015625)"/>
       </defs>
       <use xlink:href="#DejaVuSans-13"/>
       <use xlink:href="#DejaVuSans-11" transform="translate(63.625 0)"/>
       <use xlink:href="#DejaVuSans-15" transform="translate(95.40625 0)"/>
      </g>
     </g>
    </g>
    <g id="xtick_3">
     <g id="line2d_3">
      <g>
       <use xlink:href="#md79b34dfef" x="347.78512" y="421.875625" style="stroke: #000000; stroke-width: 0.8"/>
      </g>
     </g>
     <g id="text_3">
      <!-- 0.4 -->
      <g transform="translate(339.833557 436.473281) scale(0.1 -0.1)">
       <defs>
        <path id="DejaVuSans-17" d="M 2419 4116 
L 825 1625 
L 2419 1625 
L 2419 4116 
z
M 2253 4666 
L 3047 4666 
L 3047 1625 
L 3713 1625 
L 3713 1100 
L 3047 1100 
L 3047 0 
L 2419 0 
L 2419 1100 
L 313 1100 
L 313 1709 
L 2253 4666 
z
" transform="scale(0.015625)"/>
       </defs>
       <use xlink:href="#DejaVuSans-13"/>
       <use xlink:href="#DejaVuSans-11" transform="translate(63.625 0)"/>
       <use xlink:href="#DejaVuSans-17" transform="translate(95.40625 0)"/>
      </g>
     </g>
    </g>
    <g id="xtick_4">
     <g id="line2d_4">
      <g>
       <use xlink:href="#md79b34dfef" x="496.531525" y="421.875625" style="stroke: #000000; stroke-width: 0.8"/>
      </g>
     </g>
     <g id="text_4">
      <!-- 0.6 -->
      <g transform="translate(488.579963 436.473281) scale(0.1 -0.1)">
       <defs>
        <path id="DejaVuSans-19" d="M 2113 2584 
Q 1688 2584 1439 2293 
Q 1191 2003 1191 1497 
Q 1191 994 1439 701 
Q 1688 409 2113 409 
Q 2538 409 2786 701 
Q 3034 994 3034 1497 
Q 3034 2003 2786 2293 
Q 2538 2584 2113 2584 
z
M 3366 4563 
L 3366 3988 
Q 3128 4100 2886 4159 
Q 2644 4219 2406 4219 
Q 1781 4219 1451 3797 
Q 1122 3375 1075 2522 
Q 1259 2794 1537 2939 
Q 1816 3084 2150 3084 
Q 2853 3084 3261 2657 
Q 3669 2231 3669 1497 
Q 3669 778 3244 343 
Q 2819 -91 2113 -91 
Q 1303 -91 875 529 
Q 447 1150 447 2328 
Q 447 3434 972 4092 
Q 1497 4750 2381 4750 
Q 2619 4750 2861 4703 
Q 3103 4656 3366 4563 
z
" transform="scale(0.015625)"/>
       </defs>
       <use xlink:href="#DejaVuSans-13"/>
       <use xlink:href="#DejaVuSans-11" transform="translate(63.625 0)"/>
       <use xlink:href="#DejaVuSans-19" transform="translate(95.40625 0)"/>
      </g>
     </g>
    </g>
    <g id="xtick_5">
     <g id="line2d_5">
      <g>
       <use xlink:href="#md79b34dfef" x="645.277931" y="421.875625" style="stroke: #000000; stroke-width: 0.8"/>
      </g>
     </g>
     <g id="text_5">
      <!-- 0.8 -->
      <g transform="translate(637.326369 436.473281) scale(0.1 -0.1)">
       <defs>
        <path id="DejaVuSans-1b" d="M 2034 2216 
Q 1584 2216 1326 1975 
Q 1069 1734 1069 1313 
Q 1069 891 1326 650 
Q 1584 409 2034 409 
Q 2484 409 2743 651 
Q 3003 894 3003 1313 
Q 3003 1734 2745 1975 
Q 2488 2216 2034 2216 
z
M 1403 2484 
Q 997 2584 770 2862 
Q 544 3141 544 3541 
Q 544 4100 942 4425 
Q 1341 4750 2034 4750 
Q 2731 4750 3128 4425 
Q 3525 4100 3525 3541 
Q 3525 3141 3298 2862 
Q 3072 2584 2669 2484 
Q 3125 2378 3379 2068 
Q 3634 1759 3634 1313 
Q 3634 634 3220 271 
Q 2806 -91 2034 -91 
Q 1263 -91 848 271 
Q 434 634 434 1313 
Q 434 1759 690 2068 
Q 947 2378 1403 2484 
z
M 1172 3481 
Q 1172 3119 1398 2916 
Q 1625 2713 2034 2713 
Q 2441 2713 2670 2916 
Q 2900 3119 2900 3481 
Q 2900 3844 2670 4047 
Q 2441 4250 2034 4250 
Q 1625 4250 1398 4047 
Q 1172 3844 1172 3481 
z
" transform="scale(0.015625)"/>
       </defs>
       <use xlink:href="#DejaVuSans-13"/>
       <use xlink:href="#DejaVuSans-11" transform="translate(63.625 0)"/>
       <use xlink:href="#DejaVuSans-1b" transform="translate(95.40625 0)"/>
      </g>
     </g>
    </g>
    <g id="text_6">
     <!-- substitutions per site -->
     <g transform="translate(346.672656 450.474062) scale(0.1 -0.1)">
      <defs>
       <path id="DejaVuSans-56" d="M 2834 3397 
L 2834 2853 
Q 2591 2978 2328 3040 
Q 2066 3103 1784 3103 
Q 1356 3103 1142 2972 
Q 928 2841 928 2578 
Q 928 2378 1081 2264 
Q 1234 2150 1697 2047 
L 1894 2003 
Q 2506 1872 2764 1633 
Q 3022 1394 3022 966 
Q 3022 478 2636 193 
Q 2250 -91 1575 -91 
Q 1294 -91 989 -36 
Q 684 19 347 128 
L 347 722 
Q 666 556 975 473 
Q 1284 391 1588 391 
Q 1994 391 2212 530 
Q 2431 669 2431 922 
Q 2431 1156 2273 1281 
Q 2116 1406 1581 1522 
L 1381 1569 
Q 847 1681 609 1914 
Q 372 2147 372 2553 
Q 372 3047 722 3315 
Q 1072 3584 1716 3584 
Q 2034 3584 2315 3537 
Q 2597 3491 2834 3397 
z
" transform="scale(0.015625)"/>
       <path id="DejaVuSans-58" d="M 544 1381 
L 544 3500 
L 1119 3500 
L 1119 1403 
Q 1119 906 1312 657 
Q 1506 409 1894 409 
Q 2359 409 2629 706 
Q 2900 1003 2900 1516 
L 2900 3500 
L 3475 3500 
L 3475 0 
L 2900 0 
L 2900 538 
Q 2691 219 2414 64 
Q 2138 -91 1772 -91 
Q 1169 -91 856 284 
Q 544 659 544 1381 
z
M 1991 3584 
L 1991 3584 
z
" transform="scale(0.015625)"/>
       <path id="DejaVuSans-45" d="M 3116 1747 
Q 3116 2381 2855 2742 
Q 2594 3103 2138 3103 
Q 1681 3103 1420 2742 
Q 1159 2381 1159 1747 
Q 1159 1113 1420 752 
Q 1681 391 2138 391 
Q 2594 391 2855 752 
Q 3116 1113 3116 1747 
z
M 1159 2969 
Q 1341 3281 1617 3432 
Q 1894 3584 2278 3584 
Q 2916 3584 3314 3078 
Q 3713 2572 3713 1747 
Q 3713 922 3314 415 
Q 2916 -91 2278 -91 
Q 1894 -91 1617 61 
Q 1341 213 1159 525 
L 1159 0 
L 581 0 
L 581 4863 
L 1159 4863 
L 1159 2969 
z
" transform="scale(0.015625)"/>
       <path id="DejaVuSans-57" d="M 1172 4494 
L 1172 3500 
L 2356 3500 
L 2356 3053 
L 1172 3053 
L 1172 1153 
Q 1172 725 1289 603 
Q 1406 481 1766 481 
L 2356 481 
L 2356 0 
L 1766 0 
Q 1100 0 847 248 
Q 594 497 594 1153 
L 594 3053 
L 172 3053 
L 172 3500 
L 594 3500 
L 594 4494 
L 1172 4494 
z
" transform="scale(0.015625)"/>
       <path id="DejaVuSans-4c" d="M 603 3500 
L 1178 3500 
L 1178 0 
L 603 0 
L 603 3500 
z
M 603 4863 
L 1178 4863 
L 1178 4134 
L 603 4134 
L 603 4863 
z
" transform="scale(0.015625)"/>
       <path id="DejaVuSans-52" d="M 1959 3097 
Q 1497 3097 1228 2736 
Q 959 2375 959 1747 
Q 959 1119 1226 758 
Q 1494 397 1959 397 
Q 2419 397 2687 759 
Q 2956 1122 2956 1747 
Q 2956 2369 2687 2733 
Q 2419 3097 1959 3097 
z
M 1959 3584 
Q 2709 3584 3137 3096 
Q 3566 2609 3566 1747 
Q 3566 888 3137 398 
Q 2709 -91 1959 -91 
Q 1206 -91 779 398 
Q 353 888 353 1747 
Q 353 2609 779 3096 
Q 1206 3584 1959 3584 
z
" transform="scale(0.015625)"/>
       <path id="DejaVuSans-51" d="M 3513 2113 
L 3513 0 
L 2938 0 
L 2938 2094 
Q 2938 2591 2744 2837 
Q 2550 3084 2163 3084 
Q 1697 3084 1428 2787 
Q 1159 2491 1159 1978 
L 1159 0 
L 581 0 
L 581 3500 
L 1159 3500 
L 1159 2956 
Q 1366 3272 1645 3428 
Q 1925 3584 2291 3584 
Q 2894 3584 3203 3211 
Q 3513 2838 3513 2113 
z
" transform="scale(0.015625)"/>
       <path id="DejaVuSans-3" transform="scale(0.015625)"/>
       <path id="DejaVuSans-53" d="M 1159 525 
L 1159 -1331 
L 581 -1331 
L 581 3500 
L 1159 3500 
L 1159 2969 
Q 1341 3281 1617 3432 
Q 1894 3584 2278 3584 
Q 2916 3584 3314 3078 
Q 3713 2572 3713 1747 
Q 3713 922 3314 415 
Q 2916 -91 2278 -91 
Q 1894 -91 1617 61 
Q 1341 213 1159 525 
z
M 3116 1747 
Q 3116 2381 2855 2742 
Q 2594 3103 2138 3103 
Q 1681 3103 1420 2742 
Q 1159 2381 1159 1747 
Q 1159 1113 1420 752 
Q 1681 391 2138 391 
Q 2594 391 2855 752 
Q 3116 1113 3116 1747 
z
" transform="scale(0.015625)"/>
       <path id="DejaVuSans-48" d="M 3597 1894 
L 3597 1613 
L 953 1613 
Q 991 1019 1311 708 
Q 1631 397 2203 397 
Q 2534 397 2845 478 
Q 3156 559 3463 722 
L 3463 178 
Q 3153 47 2828 -22 
Q 2503 -91 2169 -91 
Q 1331 -91 842 396 
Q 353 884 353 1716 
Q 353 2575 817 3079 
Q 1281 3584 2069 3584 
Q 2775 3584 3186 3129 
Q 3597 2675 3597 1894 
z
M 3022 2063 
Q 3016 2534 2758 2815 
Q 2500 3097 2075 3097 
Q 1594 3097 1305 2825 
Q 1016 2553 972 2059 
L 3022 2063 
z
" transform="scale(0.015625)"/>
       <path id="DejaVuSans-55" d="M 2631 2963 
Q 2534 3019 2420 3045 
Q 2306 3072 2169 3072 
Q 1681 3072 1420 2755 
Q 1159 2438 1159 1844 
L 1159 0 
L 581 0 
L 581 3500 
L 1159 3500 
L 1159 2956 
Q 1341 3275 1631 3429 
Q 1922 3584 2338 3584 
Q 2397 3584 2469 3576 
Q 2541 3569 2628 3553 
L 2631 2963 
z
" transform="scale(0.015625)"/>
      </defs>
      <use xlink:href="#DejaVuSans-56"/>
      <use xlink:href="#DejaVuSans-58" transform="translate(52.09375 0)"/>
      <use xlink:href="#DejaVuSans-45" transform="translate(115.46875 0)"/>
      <use xlink:href="#DejaVuSans-56" transform="translate(178.953125 0)"/>
      <use xlink:href="#DejaVuSans-57" transform="translate(231.046875 0)"/>
      <use xlink:href="#DejaVuSans-4c" transform="translate(270.25 0)"/>
      <use xlink:href="#DejaVuSans-57" transform="translate(298.03125 0)"/>
      <use xlink:href="#DejaVuSans-58" transform="translate(337.234375 0)"/>
      <use xlink:href="#DejaVuSans-57" transform="translate(400.609375 0)"/>
      <use xlink:href="#DejaVuSans-4c" transform="translate(439.8125 0)"/>
      <use xlink:href="#DejaVuSans-52" transform="translate(467.59375 0)"/>
      <use xlink:href="#DejaVuSans-51" transform="translate(528.78125 0)"/>
      <use xlink:href="#DejaVuSans-56" transform="translate(592.15625 0)"/>
      <use xlink:href="#DejaVuSans-3" transform="translate(644.25 0)"/>
      <use xlink:href="#DejaVuSans-53" transform="translate(676.03125 0)"/>
      <use xlink:href="#DejaVuSans-48" transform="translate(739.515625 0)"/>
      <use xlink:href="#DejaVuSans-55" transform="translate(801.046875 0)"/>
      <use xlink:href="#DejaVuSans-3" transform="translate(842.15625 0)"/>
      <use xlink:href="#DejaVuSans-56" transform="translate(873.9375 0)"/>
      <use xlink:href="#DejaVuSans-4c" transform="translate(926.03125 0)"/>
      <use xlink:href="#DejaVuSans-57" transform="translate(953.8125 0)"/>
      <use xlink:href="#DejaVuSans-48" transform="translate(993.015625 0)"/>
     </g>
    </g>
   </g>
   <g id="matplotlib.axis_2">
    <g id="text_7">
     <!-- taxa -->
     <g transform="translate(14.797656 241.977881) rotate(-90) scale(0.1 -0.1)">
      <defs>
       <path id="DejaVuSans-44" d="M 2194 1759 
Q 1497 1759 1228 1600 
Q 959 1441 959 1056 
Q 959 750 1161 570 
Q 1363 391 1709 391 
Q 2188 391 2477 730 
Q 2766 1069 2766 1631 
L 2766 1759 
L 2194 1759 
z
M 3341 1997 
L 3341 0 
L 2766 0 
L 2766 531 
Q 2569 213 2275 61 
Q 1981 -91 1556 -91 
Q 1019 -91 701 211 
Q 384 513 384 1019 
Q 384 1609 779 1909 
Q 1175 2209 1959 2209 
L 2766 2209 
L 2766 2266 
Q 2766 2663 2505 2880 
Q 2244 3097 1772 3097 
Q 1472 3097 1187 3025 
Q 903 2953 641 2809 
L 641 3341 
Q 956 3463 1253 3523 
Q 1550 3584 1831 3584 
Q 2591 3584 2966 3190 
Q 3341 2797 3341 1997 
z
" transform="scale(0.015625)"/>
       <path id="DejaVuSans-5b" d="M 3513 3500 
L 2247 1797 
L 3578 0 
L 2900 0 
L 1881 1375 
L 863 0 
L 184 0 
L 1544 1831 
L 300 3500 
L 978 3500 
L 1906 2253 
L 2834 3500 
L 3513 3500 
z
" transform="scale(0.015625)"/>
      </defs>
      <use xlink:href="#DejaVuSans-57"/>
      <use xlink:href="#DejaVuSans-44" transform="translate(39.203125 0)"/>
      <use xlink:href="#DejaVuSans-5b" transform="translate(100.484375 0)"/>
      <use xlink:href="#DejaVuSans-44" transform="translate(159.671875 0)"/>
     </g>
    </g>
   </g>
   <g id="LineCollection_1">
    <path d="M 50.292308 113.143267 
L 50.292308 113.143267 
" clip-path="url(#pc1a5119ee6)" style="fill: none; stroke: #999999; stroke-width: 1.5; stroke-linecap: round"/>
   </g>
   <g id="LineCollection_2">
    <path d="M 50.292308 71.809058 
L 50.292308 71.809058 
" clip-path="url(#pc1a5119ee6)" style="fill: none; stroke: #555555; stroke-width: 1.5; stroke-linecap: round"/>
   </g>
   <g id="LineCollection_3">
    <path d="M 50.292308 154.477476 
L 311.974807 154.477476 
" clip-path="url(#pc1a5119ee6)" style="fill: none; stroke: #999999; stroke-width: 1.5; stroke-linecap: round"/>
   </g>
   <g id="LineCollection_4">
    <path d="M 311.974807 111.589349 
L 500.27459 111.589349 
" clip-path="url(#pc1a5119ee6)" style="fill: none; stroke: #d62728; stroke-width: 1.5; stroke-linecap: round"/>
   </g>
   <g id="LineCollection_5">
    <path d="M 311.974807 197.365603 
L 340.815463 197.365603 
" clip-path="url(#pc1a5119ee6)" style="fill: none; stroke: #999999; stroke-width: 1.5; stroke-linecap: round"/>
   </g>
   <g id="LineCollection_6">
    <path d="M 340.815463 151.369641 
L 523.500893 151.369641 
" clip-path="url(#pc1a5119ee6)" style="fill: none; stroke: #8c564b; stroke-width: 1.5; stroke-linecap: round"/>
   </g>
   <g id="LineCollection_7">
    <path d="M 340.815463 243.361566 
L 368.544316 243.361566 
" clip-path="url(#pc1a5119ee6)" style="fill: none; stroke: #999999; stroke-width: 1.5; stroke-linecap: round"/>
   </g>
   <g id="LineCollection_8">
    <path d="M 368.544316 191.149933 
L 595.994544 191.149933 
" clip-path="url(#pc1a5119ee6)" style="fill: none; stroke: #d62728; stroke-width: 1.5; stroke-linecap: round"/>
   </g>
   <g id="LineCollection_9">
    <path d="M 368.544316 295.573199 
L 381.098411 295.573199 
" clip-path="url(#pc1a5119ee6)" style="fill: none; stroke: #999999; stroke-width: 1.5; stroke-linecap: round"/>
   </g>
   <g id="LineCollection_10">
    <path d="M 381.098411 250.82037 
L 411.384725 250.82037 
" clip-path="url(#pc1a5119ee6)" style="fill: none; stroke: #999999; stroke-width: 1.5; stroke-linecap: round"/>
   </g>
   <g id="LineCollection_11">
    <path d="M 411.384725 230.930225 
L 548.294467 230.930225 
" clip-path="url(#pc1a5119ee6)" style="fill: none; stroke: #e8b800; stroke-width: 1.5; stroke-linecap: round"/>
   </g>
   <g id="LineCollection_12">
    <path d="M 411.384725 270.710516 
L 556.160575 270.710516 
" clip-path="url(#pc1a5119ee6)" style="fill: none; stroke: #2ca02c; stroke-width: 1.5; stroke-linecap: round"/>
   </g>
   <g id="LineCollection_13">
    <path d="M 381.098411 340.326027 
L 449.456695 340.326027 
" clip-path="url(#pc1a5119ee6)" style="fill: none; stroke: #999999; stroke-width: 1.5; stroke-linecap: round"/>
   </g>
   <g id="LineCollection_14">
    <path d="M 449.456695 310.490808 
L 543.600836 310.490808 
" clip-path="url(#pc1a5119ee6)" style="fill: none; stroke: #2ca02c; stroke-width: 1.5; stroke-linecap: round"/>
   </g>
   <g id="LineCollection_15">
    <path d="M 449.456695 370.161246 
L 483.220173 370.161246 
" clip-path="url(#pc1a5119ee6)" style="fill: none; stroke: #999999; stroke-width: 1.5; stroke-linecap: round"/>
   </g>
   <g id="LineCollection_16">
    <path d="M 483.220173 350.2711 
L 632.138462 350.2711 
" clip-path="url(#pc1a5119ee6)" style="fill: none; stroke: #8c564b; stroke-width: 1.5; stroke-linecap: round"/>
   </g>
   <g id="LineCollection_17">
    <path d="M 483.220173 390.051392 
L 568.203785 390.051392 
" clip-path="url(#pc1a5119ee6)" style="fill: none; stroke: #e8b800; stroke-width: 1.5; stroke-linecap: round"/>
   </g>
   <g id="LineCollection_18">
    <path d="M 50.292308 154.477476 
L 50.292308 71.809058 
" clip-path="url(#pc1a5119ee6)" style="fill: none; stroke: #999999; stroke-width: 1.5; stroke-linecap: round"/>
   </g>
   <g id="LineCollection_19">
    <path d="M 311.974807 197.365603 
L 311.974807 111.589349 
" clip-path="url(#pc1a5119ee6)" style="fill: none; stroke: #999999; stroke-width: 1.5; stroke-linecap: round"/>
   </g>
   <g id="LineCollection_20">
    <path d="M 340.815463 243.361566 
L 340.815463 151.369641 
" clip-path="url(#pc1a5119ee6)" style="fill: none; stroke: #999999; stroke-width: 1.5; stroke-linecap: round"/>
   </g>
   <g id="LineCollection_21">
    <path d="M 368.544316 295.573199 
L 368.544316 191.149933 
" clip-path="url(#pc1a5119ee6)" style="fill: none; stroke: #999999; stroke-width: 1.5; stroke-linecap: round"/>
   </g>
   <g id="LineCollection_22">
    <path d="M 381.098411 340.326027 
L 381.098411 250.82037 
" clip-path="url(#pc1a5119ee6)" style="fill: none; stroke: #999999; stroke-width: 1.5; stroke-linecap: round"/>
   </g>
   <g id="LineCollection_23">
    <path d="M 411.384725 270.710516 
L 411.384725 230.930225 
" clip-path="url(#pc1a5119ee6)" style="fill: none; stroke: #999999; stroke-width: 1.5; stroke-linecap: round"/>
   </g>
   <g id="LineCollection_24">
    <path d="M 449.456695 370.161246 
L 449.456695 310.490808 
" clip-path="url(#pc1a5119ee6)" style="fill: none; stroke: #999999; stroke-width: 1.5; stroke-linecap: round"/>
   </g>
   <g id="LineCollection_25">
    <path d="M 483.220173 390.051392 
L 483.220173 350.2711 
" clip-path="url(#pc1a5119ee6)" style="fill: none; stroke: #999999; stroke-width: 1.5; stroke-linecap: round"/>
   </g>
   <g id="patch_3">
    <path d="M 21.2 421.875625 
L 777.6 421.875625 
" style="fill: none; stroke: #000000; stroke-width: 0.8; stroke-linejoin: miter; stroke-linecap: square"/>
   </g>
   <g id="text_8">
    <!--   -->
    <g transform="translate(50.292308 115.740923) scale(0.1 -0.1)">
     <use xlink:href="#DejaVuSans-3"/>
    </g>
   </g>
   <g id="text_9">
    <!--  Leiocephalus carinatus -->
    <g style="fill: #555555" transform="translate(50.292308 74.407104) scale(0.1 -0.1)">
     <defs>
      <path id="DejaVuSans-BoldOblique-3" transform="scale(0.015625)"/>
      <path id="DejaVuSans-BoldOblique-2f" d="M 1044 4666 
L 2247 4666 
L 1516 909 
L 3622 909 
L 3450 0 
L 134 0 
L 1044 4666 
z
" transform="scale(0.015625)"/>
      <path id="DejaVuSans-BoldOblique-48" d="M 4025 1619 
L 3988 1441 
L 1369 1441 
Q 1369 1422 1366 1386 
Q 1363 1350 1363 1331 
Q 1363 991 1567 822 
Q 1772 653 2181 653 
Q 2534 653 2926 759 
Q 3319 866 3750 1075 
L 3578 206 
Q 3169 56 2764 -17 
Q 2359 -91 1941 -91 
Q 1122 -91 676 287 
Q 231 666 231 1356 
Q 231 1756 373 2132 
Q 516 2509 788 2822 
Q 1109 3197 1557 3390 
Q 2006 3584 2553 3584 
Q 3263 3584 3680 3206 
Q 4097 2828 4097 2188 
Q 4097 2063 4080 1923 
Q 4063 1784 4025 1619 
z
M 2969 2131 
Q 2978 2172 2983 2214 
Q 2988 2256 2988 2297 
Q 2988 2547 2838 2694 
Q 2688 2841 2431 2841 
Q 2103 2841 1873 2661 
Q 1644 2481 1522 2131 
L 2969 2131 
z
" transform="scale(0.015625)"/>
      <path id="DejaVuSans-BoldOblique-4c" d="M 878 3500 
L 2003 3500 
L 1319 0 
L 197 0 
L 878 3500 
z
M 1141 4863 
L 2266 4863 
L 2088 3950 
L 959 3950 
L 1141 4863 
z
" transform="scale(0.015625)"/>
      <path id="DejaVuSans-BoldOblique-52" d="M 2400 2784 
Q 1966 2784 1684 2390 
Q 1403 1997 1403 1388 
Q 1403 1056 1554 882 
Q 1706 709 1997 709 
Q 2431 709 2712 1104 
Q 2994 1500 2994 2113 
Q 2994 2441 2842 2612 
Q 2691 2784 2400 2784 
z
M 2491 3584 
Q 3272 3584 3719 3187 
Q 4166 2791 4166 2106 
Q 4166 1709 4025 1336 
Q 3884 963 3616 653 
Q 3297 284 2862 96 
Q 2428 -91 1894 -91 
Q 1122 -91 676 306 
Q 231 703 231 1388 
Q 231 1781 375 2157 
Q 519 2534 788 2847 
Q 1100 3209 1533 3396 
Q 1966 3584 2491 3584 
z
" transform="scale(0.015625)"/>
      <path id="DejaVuSans-BoldOblique-46" d="M 3719 3391 
L 3541 2478 
Q 3316 2628 3097 2706 
Q 2878 2784 2669 2784 
Q 2122 2784 1775 2417 
Q 1428 2050 1428 1478 
Q 1428 1113 1643 911 
Q 1859 709 2253 709 
Q 2516 709 2769 787 
Q 3022 866 3250 1019 
L 3078 103 
Q 2800 6 2519 -42 
Q 2238 -91 1953 -91 
Q 1128 -91 683 279 
Q 238 650 238 1331 
Q 238 1759 402 2162 
Q 566 2566 872 2888 
Q 1213 3241 1653 3412 
Q 2094 3584 2669 3584 
Q 2934 3584 3196 3536 
Q 3459 3488 3719 3391 
z
" transform="scale(0.015625)"/>
      <path id="DejaVuSans-BoldOblique-53" d="M 1422 506 
L 1063 -1331 
L -63 -1331 
L 878 3500 
L 2003 3500 
L 1900 2988 
Q 2156 3294 2437 3439 
Q 2719 3584 3053 3584 
Q 3644 3584 3987 3209 
Q 4331 2834 4331 2188 
Q 4331 1784 4211 1403 
Q 4091 1022 3866 709 
Q 3581 316 3223 112 
Q 2866 -91 2456 -91 
Q 2097 -91 1845 54 
Q 1594 200 1422 506 
z
M 2597 2772 
Q 2166 2772 1892 2373 
Q 1619 1975 1619 1338 
Q 1619 1050 1773 886 
Q 1928 722 2203 722 
Q 2625 722 2900 1114 
Q 3175 1506 3175 2119 
Q 3175 2438 3026 2605 
Q 2878 2772 2597 2772 
z
" transform="scale(0.015625)"/>
      <path id="DejaVuSans-BoldOblique-4b" d="M 4128 2131 
L 3713 0 
L 2591 0 
L 2944 1825 
Q 2981 2003 3001 2126 
Q 3022 2250 3022 2322 
Q 3022 2522 2911 2631 
Q 2800 2741 2597 2741 
Q 2250 2741 2001 2470 
Q 1753 2200 1656 1722 
L 1319 0 
L 197 0 
L 1141 4863 
L 2266 4863 
L 1900 2988 
Q 2209 3291 2521 3437 
Q 2834 3584 3175 3584 
Q 3659 3584 3921 3331 
Q 4184 3078 4184 2619 
Q 4184 2519 4170 2397 
Q 4156 2275 4128 2131 
z
" transform="scale(0.015625)"/>
      <path id="DejaVuSans-BoldOblique-44" d="M 2106 1575 
Q 1688 1575 1473 1445 
Q 1259 1316 1259 1063 
Q 1259 872 1386 762 
Q 1513 653 1734 653 
Q 2078 653 2309 861 
Q 2541 1069 2619 1447 
L 2644 1575 
L 2106 1575 
z
M 3853 1997 
L 3463 0 
L 2344 0 
L 2438 519 
Q 2163 206 1856 57 
Q 1550 -91 1191 -91 
Q 694 -91 401 167 
Q 109 425 109 863 
Q 109 1531 626 1886 
Q 1144 2241 2119 2241 
L 2778 2241 
L 2791 2328 
Q 2800 2372 2801 2390 
Q 2803 2409 2803 2425 
Q 2803 2631 2608 2736 
Q 2413 2841 2028 2841 
Q 1681 2841 1356 2769 
Q 1031 2697 728 2553 
L 897 3406 
Q 1247 3494 1614 3539 
Q 1981 3584 2375 3584 
Q 3153 3584 3531 3317 
Q 3909 3050 3909 2503 
Q 3909 2397 3895 2270 
Q 3881 2144 3853 1997 
z
" transform="scale(0.015625)"/>
      <path id="DejaVuSans-BoldOblique-4f" d="M 1141 4863 
L 2266 4863 
L 1319 0 
L 197 0 
L 1141 4863 
z
" transform="scale(0.015625)"/>
      <path id="DejaVuSans-BoldOblique-58" d="M 434 1363 
L 844 3500 
L 1966 3500 
L 1613 1678 
Q 1575 1500 1556 1375 
Q 1538 1250 1538 1178 
Q 1538 981 1647 872 
Q 1756 763 1959 763 
Q 2306 763 2556 1031 
Q 2806 1300 2900 1778 
L 3238 3500 
L 4359 3500 
L 3681 0 
L 2553 0 
L 2656 513 
Q 2369 209 2053 59 
Q 1738 -91 1388 -91 
Q 909 -91 646 162 
Q 384 416 384 878 
Q 384 988 396 1109 
Q 409 1231 434 1363 
z
" transform="scale(0.015625)"/>
      <path id="DejaVuSans-BoldOblique-56" d="M 3584 3391 
L 3419 2522 
Q 3091 2678 2766 2759 
Q 2441 2841 2150 2841 
Q 1819 2841 1639 2755 
Q 1459 2669 1459 2509 
Q 1459 2416 1559 2359 
Q 1659 2303 1953 2241 
L 2156 2203 
Q 2834 2059 3106 1832 
Q 3378 1606 3378 1203 
Q 3378 594 2900 251 
Q 2422 -91 1563 -91 
Q 1203 -91 828 -34 
Q 453 22 63 134 
L 231 1013 
Q 534 834 879 743 
Q 1225 653 1588 653 
Q 1941 653 2119 737 
Q 2297 822 2297 984 
Q 2297 1097 2197 1159 
Q 2097 1222 1784 1288 
L 1581 1325 
Q 981 1450 725 1694 
Q 469 1938 469 2369 
Q 469 2953 911 3268 
Q 1353 3584 2175 3584 
Q 2534 3584 2882 3536 
Q 3231 3488 3584 3391 
z
" transform="scale(0.015625)"/>
      <path id="DejaVuSans-BoldOblique-55" d="M 3291 2547 
Q 3175 2613 3034 2647 
Q 2894 2681 2731 2681 
Q 2303 2681 2020 2406 
Q 1738 2131 1638 1613 
L 1319 0 
L 197 0 
L 878 3500 
L 2003 3500 
L 1881 2900 
Q 2103 3231 2436 3407 
Q 2769 3584 3175 3584 
Q 3234 3584 3309 3578 
Q 3384 3572 3488 3559 
L 3291 2547 
z
" transform="scale(0.015625)"/>
      <path id="DejaVuSans-BoldOblique-51" d="M 4128 2131 
L 3713 0 
L 2591 0 
L 2944 1825 
Q 2981 2003 3001 2126 
Q 3022 2250 3022 2322 
Q 3022 2522 2911 2631 
Q 2800 2741 2597 2741 
Q 2250 2741 2001 2470 
Q 1753 2200 1656 1722 
L 1319 0 
L 197 0 
L 878 3500 
L 2003 3500 
L 1900 2988 
Q 2209 3291 2521 3437 
Q 2834 3584 3175 3584 
Q 3659 3584 3921 3331 
Q 4184 3078 4184 2619 
Q 4184 2519 4170 2397 
Q 4156 2275 4128 2131 
z
" transform="scale(0.015625)"/>
      <path id="DejaVuSans-BoldOblique-57" d="M 2303 4494 
L 2113 3500 
L 3256 3500 
L 3097 2700 
L 1953 2700 
L 1666 1219 
Q 1653 1169 1648 1134 
Q 1644 1100 1644 1069 
Q 1644 925 1739 862 
Q 1834 800 2059 800 
L 2638 800 
L 2478 0 
L 1538 0 
Q 1031 0 765 212 
Q 500 425 500 825 
Q 500 913 509 1013 
Q 519 1113 538 1216 
L 825 2700 
L 275 2700 
L 428 3500 
L 984 3500 
L 1178 4494 
L 2303 4494 
z
" transform="scale(0.015625)"/>
     </defs>
     <use xlink:href="#DejaVuSans-BoldOblique-3"/>
     <use xlink:href="#DejaVuSans-BoldOblique-2f" transform="translate(34.8125 0)"/>
     <use xlink:href="#DejaVuSans-BoldOblique-48" transform="translate(98.53125 0)"/>
     <use xlink:href="#DejaVuSans-BoldOblique-4c" transform="translate(166.359375 0)"/>
     <use xlink:href="#DejaVuSans-BoldOblique-52" transform="translate(200.640625 0)"/>
     <use xlink:href="#DejaVuSans-BoldOblique-46" transform="translate(269.34375 0)"/>
     <use xlink:href="#DejaVuSans-BoldOblique-48" transform="translate(328.625 0)"/>
     <use xlink:href="#DejaVuSans-BoldOblique-53" transform="translate(396.453125 0)"/>
     <use xlink:href="#DejaVuSans-BoldOblique-4b" transform="translate(468.03125 0)"/>
     <use xlink:href="#DejaVuSans-BoldOblique-44" transform="translate(539.21875 0)"/>
     <use xlink:href="#DejaVuSans-BoldOblique-4f" transform="translate(606.703125 0)"/>
     <use xlink:href="#DejaVuSans-BoldOblique-58" transform="translate(640.984375 0)"/>
     <use xlink:href="#DejaVuSans-BoldOblique-56" transform="translate(712.171875 0)"/>
     <use xlink:href="#DejaVuSans-BoldOblique-3" transform="translate(771.6875 0)"/>
     <use xlink:href="#DejaVuSans-BoldOblique-46" transform="translate(806.5 0)"/>
     <use xlink:href="#DejaVuSans-BoldOblique-44" transform="translate(865.78125 0)"/>
     <use xlink:href="#DejaVuSans-BoldOblique-55" transform="translate(933.265625 0)"/>
     <use xlink:href="#DejaVuSans-BoldOblique-4c" transform="translate(982.578125 0)"/>
     <use xlink:href="#DejaVuSans-BoldOblique-51" transform="translate(1016.859375 0)"/>
     <use xlink:href="#DejaVuSans-BoldOblique-44" transform="translate(1088.046875 0)"/>
     <use xlink:href="#DejaVuSans-BoldOblique-57" transform="translate(1155.53125 0)"/>
     <use xlink:href="#DejaVuSans-BoldOblique-58" transform="translate(1203.328125 0)"/>
     <use xlink:href="#DejaVuSans-BoldOblique-56" transform="translate(1274.515625 0)"/>
    </g>
   </g>
   <g id="text_10">
    <!--   -->
    <g transform="translate(311.974807 157.075133) scale(0.1 -0.1)">
     <use xlink:href="#DejaVuSans-3"/>
    </g>
   </g>
   <g id="text_11">
    <!-- 0.84 -->
    <g transform="translate(171.859924 154.477476) scale(0.0833 -0.0833)">
     <use xlink:href="#DejaVuSans-13"/>
     <use xlink:href="#DejaVuSans-11" transform="translate(63.625 0)"/>
     <use xlink:href="#DejaVuSans-1b" transform="translate(95.40625 0)"/>
     <use xlink:href="#DejaVuSans-17" transform="translate(159.03125 0)"/>
    </g>
   </g>
   <g id="text_12">
    <!--  Anolis sheplani -->
    <g style="fill: #d62728" transform="translate(500.27459 114.187396) scale(0.1 -0.1)">
     <defs>
      <path id="DejaVuSans-BoldOblique-24" d="M 3144 850 
L 1281 850 
L 819 0 
L -416 0 
L 2222 4666 
L 3597 4666 
L 4422 0 
L 3278 0 
L 3144 850 
z
M 1734 1697 
L 2988 1697 
L 2706 3494 
L 1734 1697 
z
" transform="scale(0.015625)"/>
     </defs>
     <use xlink:href="#DejaVuSans-BoldOblique-3"/>
     <use xlink:href="#DejaVuSans-BoldOblique-24" transform="translate(34.8125 0)"/>
     <use xlink:href="#DejaVuSans-BoldOblique-51" transform="translate(112.203125 0)"/>
     <use xlink:href="#DejaVuSans-BoldOblique-52" transform="translate(183.390625 0)"/>
     <use xlink:href="#DejaVuSans-BoldOblique-4f" transform="translate(252.09375 0)"/>
     <use xlink:href="#DejaVuSans-BoldOblique-4c" transform="translate(286.375 0)"/>
     <use xlink:href="#DejaVuSans-BoldOblique-56" transform="translate(320.65625 0)"/>
     <use xlink:href="#DejaVuSans-BoldOblique-3" transform="translate(380.171875 0)"/>
     <use xlink:href="#DejaVuSans-BoldOblique-56" transform="translate(414.984375 0)"/>
     <use xlink:href="#DejaVuSans-BoldOblique-4b" transform="translate(474.5 0)"/>
     <use xlink:href="#DejaVuSans-BoldOblique-48" transform="translate(545.6875 0)"/>
     <use xlink:href="#DejaVuSans-BoldOblique-53" transform="translate(613.515625 0)"/>
     <use xlink:href="#DejaVuSans-BoldOblique-4f" transform="translate(685.09375 0)"/>
     <use xlink:href="#DejaVuSans-BoldOblique-44" transform="translate(719.375 0)"/>
     <use xlink:href="#DejaVuSans-BoldOblique-51" transform="translate(786.859375 0)"/>
     <use xlink:href="#DejaVuSans-BoldOblique-4c" transform="translate(858.046875 0)"/>
    </g>
   </g>
   <g id="text_13">
    <!--   -->
    <g transform="translate(340.815463 199.96326) scale(0.1 -0.1)">
     <use xlink:href="#DejaVuSans-3"/>
    </g>
   </g>
   <g id="text_14">
    <!-- 0.92 -->
    <g transform="translate(317.121502 197.365603) scale(0.0833 -0.0833)">
     <defs>
      <path id="DejaVuSans-1c" d="M 703 97 
L 703 672 
Q 941 559 1184 500 
Q 1428 441 1663 441 
Q 2288 441 2617 861 
Q 2947 1281 2994 2138 
Q 2813 1869 2534 1725 
Q 2256 1581 1919 1581 
Q 1219 1581 811 2004 
Q 403 2428 403 3163 
Q 403 3881 828 4315 
Q 1253 4750 1959 4750 
Q 2769 4750 3195 4129 
Q 3622 3509 3622 2328 
Q 3622 1225 3098 567 
Q 2575 -91 1691 -91 
Q 1453 -91 1209 -44 
Q 966 3 703 97 
z
M 1959 2075 
Q 2384 2075 2632 2365 
Q 2881 2656 2881 3163 
Q 2881 3666 2632 3958 
Q 2384 4250 1959 4250 
Q 1534 4250 1286 3958 
Q 1038 3666 1038 3163 
Q 1038 2656 1286 2365 
Q 1534 2075 1959 2075 
z
" transform="scale(0.015625)"/>
     </defs>
     <use xlink:href="#DejaVuSans-13"/>
     <use xlink:href="#DejaVuSans-11" transform="translate(63.625 0)"/>
     <use xlink:href="#DejaVuSans-1c" transform="translate(95.40625 0)"/>
     <use xlink:href="#DejaVuSans-15" transform="translate(159.03125 0)"/>
    </g>
   </g>
   <g id="text_15">
    <!--  Anolis cybotes -->
    <g style="fill: #8c564b" transform="translate(523.500893 153.967688) scale(0.1 -0.1)">
     <defs>
      <path id="DejaVuSans-BoldOblique-5c" d="M 422 3500 
L 1478 3500 
L 1959 1075 
L 3200 3500 
L 4397 3500 
L 2181 -331 
Q 1809 -978 1493 -1179 
Q 1178 -1381 678 -1381 
L 0 -1381 
L 116 -647 
L 469 -647 
Q 744 -647 895 -555 
Q 1047 -463 1166 -231 
L 1269 -44 
L 422 3500 
z
" transform="scale(0.015625)"/>
      <path id="DejaVuSans-BoldOblique-45" d="M 2597 2772 
Q 2166 2772 1892 2373 
Q 1619 1975 1619 1338 
Q 1619 1050 1773 886 
Q 1928 722 2203 722 
Q 2625 722 2900 1114 
Q 3175 1506 3175 2119 
Q 3175 2438 3026 2605 
Q 2878 2772 2597 2772 
z
M 1422 506 
L 1319 0 
L 197 0 
L 1141 4863 
L 2266 4863 
L 1900 2988 
Q 2156 3294 2437 3439 
Q 2719 3584 3053 3584 
Q 3644 3584 3987 3209 
Q 4331 2834 4331 2188 
Q 4331 1784 4211 1403 
Q 4091 1022 3866 709 
Q 3581 316 3223 112 
Q 2866 -91 2456 -91 
Q 2097 -91 1845 54 
Q 1594 200 1422 506 
z
" transform="scale(0.015625)"/>
     </defs>
     <use xlink:href="#DejaVuSans-BoldOblique-3"/>
     <use xlink:href="#DejaVuSans-BoldOblique-24" transform="translate(34.8125 0)"/>
     <use xlink:href="#DejaVuSans-BoldOblique-51" transform="translate(112.203125 0)"/>
     <use xlink:href="#DejaVuSans-BoldOblique-52" transform="translate(183.390625 0)"/>
     <use xlink:href="#DejaVuSans-BoldOblique-4f" transform="translate(252.09375 0)"/>
     <use xlink:href="#DejaVuSans-BoldOblique-4c" transform="translate(286.375 0)"/>
     <use xlink:href="#DejaVuSans-BoldOblique-56" transform="translate(320.65625 0)"/>
     <use xlink:href="#DejaVuSans-BoldOblique-3" transform="translate(380.171875 0)"/>
     <use xlink:href="#DejaVuSans-BoldOblique-46" transform="translate(414.984375 0)"/>
     <use xlink:href="#DejaVuSans-BoldOblique-5c" transform="translate(474.265625 0)"/>
     <use xlink:href="#DejaVuSans-BoldOblique-45" transform="translate(539.453125 0)"/>
     <use xlink:href="#DejaVuSans-BoldOblique-52" transform="translate(611.03125 0)"/>
     <use xlink:href="#DejaVuSans-BoldOblique-57" transform="translate(679.734375 0)"/>
     <use xlink:href="#DejaVuSans-BoldOblique-48" transform="translate(727.53125 0)"/>
     <use xlink:href="#DejaVuSans-BoldOblique-56" transform="translate(795.359375 0)"/>
    </g>
   </g>
   <g id="text_16">
    <!--   -->
    <g transform="translate(368.544316 245.959222) scale(0.1 -0.1)">
     <use xlink:href="#DejaVuSans-3"/>
    </g>
   </g>
   <g id="text_17">
    <!-- 0.64 -->
    <g transform="translate(345.406257 243.361566) scale(0.0833 -0.0833)">
     <use xlink:href="#DejaVuSans-13"/>
     <use xlink:href="#DejaVuSans-11" transform="translate(63.625 0)"/>
     <use xlink:href="#DejaVuSans-19" transform="translate(95.40625 0)"/>
     <use xlink:href="#DejaVuSans-17" transform="translate(159.03125 0)"/>
    </g>
   </g>
   <g id="text_18">
    <!--  Anolis occultus -->
    <g style="fill: #d62728" transform="translate(595.994544 193.74798) scale(0.1 -0.1)">
     <use xlink:href="#DejaVuSans-BoldOblique-3"/>
     <use xlink:href="#DejaVuSans-BoldOblique-24" transform="translate(34.8125 0)"/>
     <use xlink:href="#DejaVuSans-BoldOblique-51" transform="translate(112.203125 0)"/>
     <use xlink:href="#DejaVuSans-BoldOblique-52" transform="translate(183.390625 0)"/>
     <use xlink:href="#DejaVuSans-BoldOblique-4f" transform="translate(252.09375 0)"/>
     <use xlink:href="#DejaVuSans-BoldOblique-4c" transform="translate(286.375 0)"/>
     <use xlink:href="#DejaVuSans-BoldOblique-56" transform="translate(320.65625 0)"/>
     <use xlink:href="#DejaVuSans-BoldOblique-3" transform="translate(380.171875 0)"/>
     <use xlink:href="#DejaVuSans-BoldOblique-52" transform="translate(414.984375 0)"/>
     <use xlink:href="#DejaVuSans-BoldOblique-46" transform="translate(483.6875 0)"/>
     <use xlink:href="#DejaVuSans-BoldOblique-46" transform="translate(542.96875 0)"/>
     <use xlink:href="#DejaVuSans-BoldOblique-58" transform="translate(602.25 0)"/>
     <use xlink:href="#DejaVuSans-BoldOblique-4f" transform="translate(673.4375 0)"/>
     <use xlink:href="#DejaVuSans-BoldOblique-57" transform="translate(707.71875 0)"/>
     <use xlink:href="#DejaVuSans-BoldOblique-58" transform="translate(755.515625 0)"/>
     <use xlink:href="#DejaVuSans-BoldOblique-56" transform="translate(826.703125 0)"/>
    </g>
   </g>
   <g id="text_19">
    <!--   -->
    <g transform="translate(381.098411 298.170855) scale(0.1 -0.1)">
     <use xlink:href="#DejaVuSans-3"/>
    </g>
   </g>
   <g id="text_20">
    <!--   -->
    <g transform="translate(411.384725 253.418027) scale(0.1 -0.1)">
     <use xlink:href="#DejaVuSans-3"/>
    </g>
   </g>
   <g id="text_21">
    <!-- 0.79 -->
    <g transform="translate(386.967935 250.82037) scale(0.0833 -0.0833)">
     <defs>
      <path id="DejaVuSans-1a" d="M 525 4666 
L 3525 4666 
L 3525 4397 
L 1831 0 
L 1172 0 
L 2766 4134 
L 525 4134 
L 525 4666 
z
" transform="scale(0.015625)"/>
     </defs>
     <use xlink:href="#DejaVuSans-13"/>
     <use xlink:href="#DejaVuSans-11" transform="translate(63.625 0)"/>
     <use xlink:href="#DejaVuSans-1a" transform="translate(95.40625 0)"/>
     <use xlink:href="#DejaVuSans-1c" transform="translate(159.03125 0)"/>
    </g>
   </g>
   <g id="text_22">
    <!--  Anolis olssoni -->
    <g style="fill: #e8b800" transform="translate(548.294467 233.528271) scale(0.1 -0.1)">
     <use xlink:href="#DejaVuSans-BoldOblique-3"/>
     <use xlink:href="#DejaVuSans-BoldOblique-24" transform="translate(34.8125 0)"/>
     <use xlink:href="#DejaVuSans-BoldOblique-51" transform="translate(112.203125 0)"/>
     <use xlink:href="#DejaVuSans-BoldOblique-52" transform="translate(183.390625 0)"/>
     <use xlink:href="#DejaVuSans-BoldOblique-4f" transform="translate(252.09375 0)"/>
     <use xlink:href="#DejaVuSans-BoldOblique-4c" transform="translate(286.375 0)"/>
     <use xlink:href="#DejaVuSans-BoldOblique-56" transform="translate(320.65625 0)"/>
     <use xlink:href="#DejaVuSans-BoldOblique-3" transform="translate(380.171875 0)"/>
     <use xlink:href="#DejaVuSans-BoldOblique-52" transform="translate(414.984375 0)"/>
     <use xlink:href="#DejaVuSans-BoldOblique-4f" transform="translate(483.6875 0)"/>
     <use xlink:href="#DejaVuSans-BoldOblique-56" transform="translate(517.96875 0)"/>
     <use xlink:href="#DejaVuSans-BoldOblique-56" transform="translate(577.484375 0)"/>
     <use xlink:href="#DejaVuSans-BoldOblique-52" transform="translate(637 0)"/>
     <use xlink:href="#DejaVuSans-BoldOblique-51" transform="translate(705.703125 0)"/>
     <use xlink:href="#DejaVuSans-BoldOblique-4c" transform="translate(776.890625 0)"/>
    </g>
   </g>
   <g id="text_23">
    <!--  Anolis coelestinus -->
    <g style="fill: #2ca02c" transform="translate(556.160575 273.308563) scale(0.1 -0.1)">
     <use xlink:href="#DejaVuSans-BoldOblique-3"/>
     <use xlink:href="#DejaVuSans-BoldOblique-24" transform="translate(34.8125 0)"/>
     <use xlink:href="#DejaVuSans-BoldOblique-51" transform="translate(112.203125 0)"/>
     <use xlink:href="#DejaVuSans-BoldOblique-52" transform="translate(183.390625 0)"/>
     <use xlink:href="#DejaVuSans-BoldOblique-4f" transform="translate(252.09375 0)"/>
     <use xlink:href="#DejaVuSans-BoldOblique-4c" transform="translate(286.375 0)"/>
     <use xlink:href="#DejaVuSans-BoldOblique-56" transform="translate(320.65625 0)"/>
     <use xlink:href="#DejaVuSans-BoldOblique-3" transform="translate(380.171875 0)"/>
     <use xlink:href="#DejaVuSans-BoldOblique-46" transform="translate(414.984375 0)"/>
     <use xlink:href="#DejaVuSans-BoldOblique-52" transform="translate(474.265625 0)"/>
     <use xlink:href="#DejaVuSans-BoldOblique-48" transform="translate(542.96875 0)"/>
     <use xlink:href="#DejaVuSans-BoldOblique-4f" transform="translate(610.796875 0)"/>
     <use xlink:href="#DejaVuSans-BoldOblique-48" transform="translate(645.078125 0)"/>
     <use xlink:href="#DejaVuSans-BoldOblique-56" transform="translate(712.90625 0)"/>
     <use xlink:href="#DejaVuSans-BoldOblique-57" transform="translate(772.421875 0)"/>
     <use xlink:href="#DejaVuSans-BoldOblique-4c" transform="translate(820.21875 0)"/>
     <use xlink:href="#DejaVuSans-BoldOblique-51" transform="translate(854.5 0)"/>
     <use xlink:href="#DejaVuSans-BoldOblique-58" transform="translate(925.6875 0)"/>
     <use xlink:href="#DejaVuSans-BoldOblique-56" transform="translate(996.875 0)"/>
    </g>
   </g>
   <g id="text_24">
    <!--   -->
    <g transform="translate(449.456695 342.923683) scale(0.1 -0.1)">
     <use xlink:href="#DejaVuSans-3"/>
    </g>
   </g>
   <g id="text_25">
    <!-- 1.00 -->
    <g transform="translate(406.00392 340.326027) scale(0.0833 -0.0833)">
     <defs>
      <path id="DejaVuSans-14" d="M 794 531 
L 1825 531 
L 1825 4091 
L 703 3866 
L 703 4441 
L 1819 4666 
L 2450 4666 
L 2450 531 
L 3481 531 
L 3481 0 
L 794 0 
L 794 531 
z
" transform="scale(0.015625)"/>
     </defs>
     <use xlink:href="#DejaVuSans-14"/>
     <use xlink:href="#DejaVuSans-11" transform="translate(63.625 0)"/>
     <use xlink:href="#DejaVuSans-13" transform="translate(95.40625 0)"/>
     <use xlink:href="#DejaVuSans-13" transform="translate(159.03125 0)"/>
    </g>
   </g>
   <g id="text_26">
    <!--  Anolis evermanni -->
    <g style="fill: #2ca02c" transform="translate(543.600836 313.088855) scale(0.1 -0.1)">
     <defs>
      <path id="DejaVuSans-BoldOblique-59" d="M 403 3500 
L 1434 3500 
L 1888 1056 
L 3206 3500 
L 4341 3500 
L 2284 0 
L 1100 0 
L 403 3500 
z
" transform="scale(0.015625)"/>
      <path id="DejaVuSans-BoldOblique-50" d="M 4013 2919 
Q 4272 3241 4601 3412 
Q 4931 3584 5288 3584 
Q 5756 3584 6026 3326 
Q 6297 3069 6297 2619 
Q 6297 2525 6283 2404 
Q 6269 2284 6241 2131 
L 5825 0 
L 4697 0 
L 5050 1825 
L 5059 1872 
Q 5141 2259 5141 2369 
Q 5141 2541 5042 2641 
Q 4944 2741 4775 2741 
Q 4453 2741 4229 2477 
Q 4006 2213 3909 1722 
L 3572 0 
L 2444 0 
L 2803 1825 
Q 2850 2059 2869 2179 
Q 2888 2300 2888 2369 
Q 2888 2544 2791 2642 
Q 2694 2741 2522 2741 
Q 2213 2741 1980 2467 
Q 1747 2194 1656 1722 
L 1319 0 
L 197 0 
L 878 3500 
L 2003 3500 
L 1900 2988 
Q 2163 3284 2459 3434 
Q 2756 3584 3078 3584 
Q 3441 3584 3700 3398 
Q 3959 3213 4013 2919 
z
" transform="scale(0.015625)"/>
     </defs>
     <use xlink:href="#DejaVuSans-BoldOblique-3"/>
     <use xlink:href="#DejaVuSans-BoldOblique-24" transform="translate(34.8125 0)"/>
     <use xlink:href="#DejaVuSans-BoldOblique-51" transform="translate(112.203125 0)"/>
     <use xlink:href="#DejaVuSans-BoldOblique-52" transform="translate(183.390625 0)"/>
     <use xlink:href="#DejaVuSans-BoldOblique-4f" transform="translate(252.09375 0)"/>
     <use xlink:href="#DejaVuSans-BoldOblique-4c" transform="translate(286.375 0)"/>
     <use xlink:href="#DejaVuSans-BoldOblique-56" transform="translate(320.65625 0)"/>
     <use xlink:href="#DejaVuSans-BoldOblique-3" transform="translate(380.171875 0)"/>
     <use xlink:href="#DejaVuSans-BoldOblique-48" transform="translate(414.984375 0)"/>
     <use xlink:href="#DejaVuSans-BoldOblique-59" transform="translate(482.8125 0)"/>
     <use xlink:href="#DejaVuSans-BoldOblique-48" transform="translate(548 0)"/>
     <use xlink:href="#DejaVuSans-BoldOblique-55" transform="translate(615.828125 0)"/>
     <use xlink:href="#DejaVuSans-BoldOblique-50" transform="translate(665.140625 0)"/>
     <use xlink:href="#DejaVuSans-BoldOblique-44" transform="translate(769.34375 0)"/>
     <use xlink:href="#DejaVuSans-BoldOblique-51" transform="translate(836.828125 0)"/>
     <use xlink:href="#DejaVuSans-BoldOblique-51" transform="translate(908.015625 0)"/>
     <use xlink:href="#DejaVuSans-BoldOblique-4c" transform="translate(979.203125 0)"/>
    </g>
   </g>
   <g id="text_27">
    <!--   -->
    <g transform="translate(483.220173 372.758902) scale(0.1 -0.1)">
     <use xlink:href="#DejaVuSans-3"/>
    </g>
   </g>
   <g id="text_28">
    <!-- 0.96 -->
    <g transform="translate(457.064801 370.161246) scale(0.0833 -0.0833)">
     <use xlink:href="#DejaVuSans-13"/>
     <use xlink:href="#DejaVuSans-11" transform="translate(63.625 0)"/>
     <use xlink:href="#DejaVuSans-1c" transform="translate(95.40625 0)"/>
     <use xlink:href="#DejaVuSans-19" transform="translate(159.03125 0)"/>
    </g>
   </g>
   <g id="text_29">
    <!--  Anolis cristatellus -->
    <g style="fill: #8c564b" transform="translate(632.138462 352.869147) scale(0.1 -0.1)">
     <use xlink:href="#DejaVuSans-BoldOblique-3"/>
     <use xlink:href="#DejaVuSans-BoldOblique-24" transform="translate(34.8125 0)"/>
     <use xlink:href="#DejaVuSans-BoldOblique-51" transform="translate(112.203125 0)"/>
     <use xlink:href="#DejaVuSans-BoldOblique-52" transform="translate(183.390625 0)"/>
     <use xlink:href="#DejaVuSans-BoldOblique-4f" transform="translate(252.09375 0)"/>
     <use xlink:href="#DejaVuSans-BoldOblique-4c" transform="translate(286.375 0)"/>
     <use xlink:href="#DejaVuSans-BoldOblique-56" transform="translate(320.65625 0)"/>
     <use xlink:href="#DejaVuSans-BoldOblique-3" transform="translate(380.171875 0)"/>
     <use xlink:href="#DejaVuSans-BoldOblique-46" transform="translate(414.984375 0)"/>
     <use xlink:href="#DejaVuSans-BoldOblique-55" transform="translate(474.265625 0)"/>
     <use xlink:href="#DejaVuSans-BoldOblique-4c" transform="translate(523.578125 0)"/>
     <use xlink:href="#DejaVuSans-BoldOblique-56" transform="translate(557.859375 0)"/>
     <use xlink:href="#DejaVuSans-BoldOblique-57" transform="translate(617.375 0)"/>
     <use xlink:href="#DejaVuSans-BoldOblique-44" transform="translate(665.171875 0)"/>
     <use xlink:href="#DejaVuSans-BoldOblique-57" transform="translate(732.65625 0)"/>
     <use xlink:href="#DejaVuSans-BoldOblique-48" transform="translate(780.453125 0)"/>
     <use xlink:href="#DejaVuSans-BoldOblique-4f" transform="translate(848.28125 0)"/>
     <use xlink:href="#DejaVuSans-BoldOblique-4f" transform="translate(882.5625 0)"/>
     <use xlink:href="#DejaVuSans-BoldOblique-58" transform="translate(916.84375 0)"/>
     <use xlink:href="#DejaVuSans-BoldOblique-56" transform="translate(988.03125 0)"/>
    </g>
   </g>
   <g id="text_30">
    <!--  Anolis pulchellus -->
    <g style="fill: #e8b800" transform="translate(568.203785 392.649438) scale(0.1 -0.1)">
     <use xlink:href="#DejaVuSans-BoldOblique-3"/>
     <use xlink:href="#DejaVuSans-BoldOblique-24" transform="translate(34.8125 0)"/>
     <use xlink:href="#DejaVuSans-BoldOblique-51" transform="translate(112.203125 0)"/>
     <use xlink:href="#DejaVuSans-BoldOblique-52" transform="translate(183.390625 0)"/>
     <use xlink:href="#DejaVuSans-BoldOblique-4f" transform="translate(252.09375 0)"/>
     <use xlink:href="#DejaVuSans-BoldOblique-4c" transform="translate(286.375 0)"/>
     <use xlink:href="#DejaVuSans-BoldOblique-56" transform="translate(320.65625 0)"/>
     <use xlink:href="#DejaVuSans-BoldOblique-3" transform="translate(380.171875 0)"/>
     <use xlink:href="#DejaVuSans-BoldOblique-53" transform="translate(414.984375 0)"/>
     <use xlink:href="#DejaVuSans-BoldOblique-58" transform="translate(486.5625 0)"/>
     <use xlink:href="#DejaVuSans-BoldOblique-4f" transform="translate(557.75 0)"/>
     <use xlink:href="#DejaVuSans-BoldOblique-46" transform="translate(592.03125 0)"/>
     <use xlink:href="#DejaVuSans-BoldOblique-4b" transform="translate(651.3125 0)"/>
     <use xlink:href="#DejaVuSans-BoldOblique-48" transform="translate(722.5 0)"/>
     <use xlink:href="#DejaVuSans-BoldOblique-4f" transform="translate(790.328125 0)"/>
     <use xlink:href="#DejaVuSans-BoldOblique-4f" transform="translate(824.609375 0)"/>
     <use xlink:href="#DejaVuSans-BoldOblique-58" transform="translate(858.890625 0)"/>
     <use xlink:href="#DejaVuSans-BoldOblique-56" transform="translate(930.078125 0)"/>
    </g>
   </g>
   <g id="text_31">
    <!-- Maximum-Likelihood tree (FastTree, GTR+Γ) -->
    <g transform="translate(237.916641 18.379238) scale(0.13 -0.13)">
     <defs>
      <path id="DejaVuSans-Bold-30" d="M 588 4666 
L 2119 4666 
L 3181 2169 
L 4250 4666 
L 5778 4666 
L 5778 0 
L 4641 0 
L 4641 3413 
L 3566 897 
L 2803 897 
L 1728 3413 
L 1728 0 
L 588 0 
L 588 4666 
z
" transform="scale(0.015625)"/>
      <path id="DejaVuSans-Bold-44" d="M 2106 1575 
Q 1756 1575 1579 1456 
Q 1403 1338 1403 1106 
Q 1403 894 1545 773 
Q 1688 653 1941 653 
Q 2256 653 2472 879 
Q 2688 1106 2688 1447 
L 2688 1575 
L 2106 1575 
z
M 3816 1997 
L 3816 0 
L 2688 0 
L 2688 519 
Q 2463 200 2181 54 
Q 1900 -91 1497 -91 
Q 953 -91 614 226 
Q 275 544 275 1050 
Q 275 1666 698 1953 
Q 1122 2241 2028 2241 
L 2688 2241 
L 2688 2328 
Q 2688 2594 2478 2717 
Q 2269 2841 1825 2841 
Q 1466 2841 1156 2769 
Q 847 2697 581 2553 
L 581 3406 
Q 941 3494 1303 3539 
Q 1666 3584 2028 3584 
Q 2975 3584 3395 3211 
Q 3816 2838 3816 1997 
z
" transform="scale(0.015625)"/>
      <path id="DejaVuSans-Bold-5b" d="M 1422 1791 
L 159 3500 
L 1344 3500 
L 2059 2463 
L 2784 3500 
L 3969 3500 
L 2706 1797 
L 4031 0 
L 2847 0 
L 2059 1106 
L 1281 0 
L 97 0 
L 1422 1791 
z
" transform="scale(0.015625)"/>
      <path id="DejaVuSans-Bold-4c" d="M 538 3500 
L 1656 3500 
L 1656 0 
L 538 0 
L 538 3500 
z
M 538 4863 
L 1656 4863 
L 1656 3950 
L 538 3950 
L 538 4863 
z
" transform="scale(0.015625)"/>
      <path id="DejaVuSans-Bold-50" d="M 3781 2919 
Q 3994 3244 4286 3414 
Q 4578 3584 4928 3584 
Q 5531 3584 5847 3212 
Q 6163 2841 6163 2131 
L 6163 0 
L 5038 0 
L 5038 1825 
Q 5041 1866 5042 1909 
Q 5044 1953 5044 2034 
Q 5044 2406 4934 2573 
Q 4825 2741 4581 2741 
Q 4263 2741 4089 2478 
Q 3916 2216 3909 1719 
L 3909 0 
L 2784 0 
L 2784 1825 
Q 2784 2406 2684 2573 
Q 2584 2741 2328 2741 
Q 2006 2741 1831 2477 
Q 1656 2213 1656 1722 
L 1656 0 
L 531 0 
L 531 3500 
L 1656 3500 
L 1656 2988 
Q 1863 3284 2130 3434 
Q 2397 3584 2719 3584 
Q 3081 3584 3359 3409 
Q 3638 3234 3781 2919 
z
" transform="scale(0.015625)"/>
      <path id="DejaVuSans-Bold-58" d="M 500 1363 
L 500 3500 
L 1625 3500 
L 1625 3150 
Q 1625 2866 1622 2436 
Q 1619 2006 1619 1863 
Q 1619 1441 1641 1255 
Q 1663 1069 1716 984 
Q 1784 875 1895 815 
Q 2006 756 2150 756 
Q 2500 756 2700 1025 
Q 2900 1294 2900 1772 
L 2900 3500 
L 4019 3500 
L 4019 0 
L 2900 0 
L 2900 506 
Q 2647 200 2364 54 
Q 2081 -91 1741 -91 
Q 1134 -91 817 281 
Q 500 653 500 1363 
z
" transform="scale(0.015625)"/>
      <path id="DejaVuSans-Bold-10" d="M 347 2297 
L 2309 2297 
L 2309 1388 
L 347 1388 
L 347 2297 
z
" transform="scale(0.015625)"/>
      <path id="DejaVuSans-Bold-2f" d="M 588 4666 
L 1791 4666 
L 1791 909 
L 3903 909 
L 3903 0 
L 588 0 
L 588 4666 
z
" transform="scale(0.015625)"/>
      <path id="DejaVuSans-Bold-4e" d="M 538 4863 
L 1656 4863 
L 1656 2216 
L 2944 3500 
L 4244 3500 
L 2534 1894 
L 4378 0 
L 3022 0 
L 1656 1459 
L 1656 0 
L 538 0 
L 538 4863 
z
" transform="scale(0.015625)"/>
      <path id="DejaVuSans-Bold-48" d="M 4031 1759 
L 4031 1441 
L 1416 1441 
Q 1456 1047 1700 850 
Q 1944 653 2381 653 
Q 2734 653 3104 758 
Q 3475 863 3866 1075 
L 3866 213 
Q 3469 63 3072 -14 
Q 2675 -91 2278 -91 
Q 1328 -91 801 392 
Q 275 875 275 1747 
Q 275 2603 792 3093 
Q 1309 3584 2216 3584 
Q 3041 3584 3536 3087 
Q 4031 2591 4031 1759 
z
M 2881 2131 
Q 2881 2450 2695 2645 
Q 2509 2841 2209 2841 
Q 1884 2841 1681 2658 
Q 1478 2475 1428 2131 
L 2881 2131 
z
" transform="scale(0.015625)"/>
      <path id="DejaVuSans-Bold-4f" d="M 538 4863 
L 1656 4863 
L 1656 0 
L 538 0 
L 538 4863 
z
" transform="scale(0.015625)"/>
      <path id="DejaVuSans-Bold-4b" d="M 4056 2131 
L 4056 0 
L 2931 0 
L 2931 347 
L 2931 1625 
Q 2931 2084 2911 2256 
Q 2891 2428 2841 2509 
Q 2775 2619 2662 2680 
Q 2550 2741 2406 2741 
Q 2056 2741 1856 2470 
Q 1656 2200 1656 1722 
L 1656 0 
L 538 0 
L 538 4863 
L 1656 4863 
L 1656 2988 
Q 1909 3294 2193 3439 
Q 2478 3584 2822 3584 
Q 3428 3584 3742 3212 
Q 4056 2841 4056 2131 
z
" transform="scale(0.015625)"/>
      <path id="DejaVuSans-Bold-52" d="M 2203 2784 
Q 1831 2784 1636 2517 
Q 1441 2250 1441 1747 
Q 1441 1244 1636 976 
Q 1831 709 2203 709 
Q 2569 709 2762 976 
Q 2956 1244 2956 1747 
Q 2956 2250 2762 2517 
Q 2569 2784 2203 2784 
z
M 2203 3584 
Q 3106 3584 3614 3096 
Q 4122 2609 4122 1747 
Q 4122 884 3614 396 
Q 3106 -91 2203 -91 
Q 1297 -91 786 396 
Q 275 884 275 1747 
Q 275 2609 786 3096 
Q 1297 3584 2203 3584 
z
" transform="scale(0.015625)"/>
      <path id="DejaVuSans-Bold-47" d="M 2919 2988 
L 2919 4863 
L 4044 4863 
L 4044 0 
L 2919 0 
L 2919 506 
Q 2688 197 2409 53 
Q 2131 -91 1766 -91 
Q 1119 -91 703 423 
Q 288 938 288 1747 
Q 288 2556 703 3070 
Q 1119 3584 1766 3584 
Q 2128 3584 2408 3439 
Q 2688 3294 2919 2988 
z
M 2181 722 
Q 2541 722 2730 984 
Q 2919 1247 2919 1747 
Q 2919 2247 2730 2509 
Q 2541 2772 2181 2772 
Q 1825 2772 1636 2509 
Q 1447 2247 1447 1747 
Q 1447 1247 1636 984 
Q 1825 722 2181 722 
z
" transform="scale(0.015625)"/>
      <path id="DejaVuSans-Bold-3" transform="scale(0.015625)"/>
      <path id="DejaVuSans-Bold-57" d="M 1759 4494 
L 1759 3500 
L 2913 3500 
L 2913 2700 
L 1759 2700 
L 1759 1216 
Q 1759 972 1856 886 
Q 1953 800 2241 800 
L 2816 800 
L 2816 0 
L 1856 0 
Q 1194 0 917 276 
Q 641 553 641 1216 
L 641 2700 
L 84 2700 
L 84 3500 
L 641 3500 
L 641 4494 
L 1759 4494 
z
" transform="scale(0.015625)"/>
      <path id="DejaVuSans-Bold-55" d="M 3138 2547 
Q 2991 2616 2845 2648 
Q 2700 2681 2553 2681 
Q 2122 2681 1889 2404 
Q 1656 2128 1656 1613 
L 1656 0 
L 538 0 
L 538 3500 
L 1656 3500 
L 1656 2925 
Q 1872 3269 2151 3426 
Q 2431 3584 2822 3584 
Q 2878 3584 2943 3579 
Q 3009 3575 3134 3559 
L 3138 2547 
z
" transform="scale(0.015625)"/>
      <path id="DejaVuSans-Bold-b" d="M 2413 -844 
L 1484 -844 
Q 1006 -72 778 623 
Q 550 1319 550 2003 
Q 550 2688 779 3389 
Q 1009 4091 1484 4856 
L 2413 4856 
Q 2013 4116 1813 3408 
Q 1613 2700 1613 2009 
Q 1613 1319 1811 609 
Q 2009 -100 2413 -844 
z
" transform="scale(0.015625)"/>
      <path id="DejaVuSans-Bold-29" d="M 588 4666 
L 3834 4666 
L 3834 3756 
L 1791 3756 
L 1791 2888 
L 3713 2888 
L 3713 1978 
L 1791 1978 
L 1791 0 
L 588 0 
L 588 4666 
z
" transform="scale(0.015625)"/>
      <path id="DejaVuSans-Bold-56" d="M 3272 3391 
L 3272 2541 
Q 2913 2691 2578 2766 
Q 2244 2841 1947 2841 
Q 1628 2841 1473 2761 
Q 1319 2681 1319 2516 
Q 1319 2381 1436 2309 
Q 1553 2238 1856 2203 
L 2053 2175 
Q 2913 2066 3209 1816 
Q 3506 1566 3506 1031 
Q 3506 472 3093 190 
Q 2681 -91 1863 -91 
Q 1516 -91 1145 -36 
Q 775 19 384 128 
L 384 978 
Q 719 816 1070 734 
Q 1422 653 1784 653 
Q 2113 653 2278 743 
Q 2444 834 2444 1013 
Q 2444 1163 2330 1236 
Q 2216 1309 1875 1350 
L 1678 1375 
Q 931 1469 631 1722 
Q 331 1975 331 2491 
Q 331 3047 712 3315 
Q 1094 3584 1881 3584 
Q 2191 3584 2531 3537 
Q 2872 3491 3272 3391 
z
" transform="scale(0.015625)"/>
      <path id="DejaVuSans-Bold-37" d="M 31 4666 
L 4331 4666 
L 4331 3756 
L 2784 3756 
L 2784 0 
L 1581 0 
L 1581 3756 
L 31 3756 
L 31 4666 
z
" transform="scale(0.015625)"/>
      <path id="DejaVuSans-Bold-f" d="M 653 1209 
L 1778 1209 
L 1778 256 
L 1006 -909 
L 341 -909 
L 653 256 
L 653 1209 
z
" transform="scale(0.015625)"/>
      <path id="DejaVuSans-Bold-2a" d="M 4781 347 
Q 4331 128 3847 18 
Q 3363 -91 2847 -91 
Q 1681 -91 1000 561 
Q 319 1213 319 2328 
Q 319 3456 1012 4103 
Q 1706 4750 2913 4750 
Q 3378 4750 3804 4662 
Q 4231 4575 4609 4403 
L 4609 3438 
Q 4219 3659 3833 3768 
Q 3447 3878 3059 3878 
Q 2341 3878 1952 3476 
Q 1563 3075 1563 2328 
Q 1563 1588 1938 1184 
Q 2313 781 3003 781 
Q 3191 781 3352 804 
Q 3513 828 3641 878 
L 3641 1784 
L 2906 1784 
L 2906 2591 
L 4781 2591 
L 4781 347 
z
" transform="scale(0.015625)"/>
      <path id="DejaVuSans-Bold-35" d="M 2297 2597 
Q 2675 2597 2839 2737 
Q 3003 2878 3003 3200 
Q 3003 3519 2839 3656 
Q 2675 3794 2297 3794 
L 1791 3794 
L 1791 2597 
L 2297 2597 
z
M 1791 1766 
L 1791 0 
L 588 0 
L 588 4666 
L 2425 4666 
Q 3347 4666 3776 4356 
Q 4206 4047 4206 3378 
Q 4206 2916 3982 2619 
Q 3759 2322 3309 2181 
Q 3556 2125 3751 1926 
Q 3947 1728 4147 1325 
L 4800 0 
L 3519 0 
L 2950 1159 
Q 2778 1509 2601 1637 
Q 2425 1766 2131 1766 
L 1791 1766 
z
" transform="scale(0.015625)"/>
      <path id="DejaVuSans-Bold-e" d="M 3053 4013 
L 3053 2375 
L 4684 2375 
L 4684 1638 
L 3053 1638 
L 3053 0 
L 2309 0 
L 2309 1638 
L 678 1638 
L 678 2375 
L 2309 2375 
L 2309 4013 
L 3053 4013 
z
" transform="scale(0.015625)"/>
      <path id="DejaVuSans-Bold-328" d="M 588 0 
L 588 4666 
L 3903 4666 
L 3903 3756 
L 1791 3756 
L 1791 0 
L 588 0 
z
" transform="scale(0.015625)"/>
      <path id="DejaVuSans-Bold-c" d="M 513 -844 
Q 913 -100 1113 609 
Q 1313 1319 1313 2009 
Q 1313 2700 1113 3408 
Q 913 4116 513 4856 
L 1441 4856 
Q 1916 4091 2145 3389 
Q 2375 2688 2375 2003 
Q 2375 1319 2147 623 
Q 1919 -72 1441 -844 
L 513 -844 
z
" transform="scale(0.015625)"/>
     </defs>
     <use xlink:href="#DejaVuSans-Bold-30"/>
     <use xlink:href="#DejaVuSans-Bold-44" transform="translate(99.515625 0)"/>
     <use xlink:href="#DejaVuSans-Bold-5b" transform="translate(167 0)"/>
     <use xlink:href="#DejaVuSans-Bold-4c" transform="translate(231.5 0)"/>
     <use xlink:href="#DejaVuSans-Bold-50" transform="translate(265.78125 0)"/>
     <use xlink:href="#DejaVuSans-Bold-58" transform="translate(369.984375 0)"/>
     <use xlink:href="#DejaVuSans-Bold-50" transform="translate(441.171875 0)"/>
     <use xlink:href="#DejaVuSans-Bold-10" transform="translate(545.375 0)"/>
     <use xlink:href="#DejaVuSans-Bold-2f" transform="translate(586.875 0)"/>
     <use xlink:href="#DejaVuSans-Bold-4c" transform="translate(650.59375 0)"/>
     <use xlink:href="#DejaVuSans-Bold-4e" transform="translate(684.875 0)"/>
     <use xlink:href="#DejaVuSans-Bold-48" transform="translate(748.6875 0)"/>
     <use xlink:href="#DejaVuSans-Bold-4f" transform="translate(816.515625 0)"/>
     <use xlink:href="#DejaVuSans-Bold-4c" transform="translate(850.796875 0)"/>
     <use xlink:href="#DejaVuSans-Bold-4b" transform="translate(885.078125 0)"/>
     <use xlink:href="#DejaVuSans-Bold-52" transform="translate(956.265625 0)"/>
     <use xlink:href="#DejaVuSans-Bold-52" transform="translate(1024.96875 0)"/>
     <use xlink:href="#DejaVuSans-Bold-47" transform="translate(1093.671875 0)"/>
     <use xlink:href="#DejaVuSans-Bold-3" transform="translate(1165.25 0)"/>
     <use xlink:href="#DejaVuSans-Bold-57" transform="translate(1200.0625 0)"/>
     <use xlink:href="#DejaVuSans-Bold-55" transform="translate(1247.859375 0)"/>
     <use xlink:href="#DejaVuSans-Bold-48" transform="translate(1297.171875 0)"/>
     <use xlink:href="#DejaVuSans-Bold-48" transform="translate(1365 0)"/>
     <use xlink:href="#DejaVuSans-Bold-3" transform="translate(1432.828125 0)"/>
     <use xlink:href="#DejaVuSans-Bold-b" transform="translate(1467.640625 0)"/>
     <use xlink:href="#DejaVuSans-Bold-29" transform="translate(1513.34375 0)"/>
     <use xlink:href="#DejaVuSans-Bold-44" transform="translate(1575.796875 0)"/>
     <use xlink:href="#DejaVuSans-Bold-56" transform="translate(1643.28125 0)"/>
     <use xlink:href="#DejaVuSans-Bold-57" transform="translate(1702.796875 0)"/>
     <use xlink:href="#DejaVuSans-Bold-37" transform="translate(1750.59375 0)"/>
     <use xlink:href="#DejaVuSans-Bold-55" transform="translate(1807.828125 0)"/>
     <use xlink:href="#DejaVuSans-Bold-48" transform="translate(1857.140625 0)"/>
     <use xlink:href="#DejaVuSans-Bold-48" transform="translate(1924.96875 0)"/>
     <use xlink:href="#DejaVuSans-Bold-f" transform="translate(1992.796875 0)"/>
     <use xlink:href="#DejaVuSans-Bold-3" transform="translate(2030.78125 0)"/>
     <use xlink:href="#DejaVuSans-Bold-2a" transform="translate(2065.59375 0)"/>
     <use xlink:href="#DejaVuSans-Bold-37" transform="translate(2145.921875 0)"/>
     <use xlink:href="#DejaVuSans-Bold-35" transform="translate(2214.140625 0)"/>
     <use xlink:href="#DejaVuSans-Bold-e" transform="translate(2291.140625 0)"/>
     <use xlink:href="#DejaVuSans-Bold-328" transform="translate(2374.9375 0)"/>
     <use xlink:href="#DejaVuSans-Bold-c" transform="translate(2438.65625 0)"/>
    </g>
    <!-- Caribbean $Anolis$ mtDNA -->
    <g transform="translate(312.235 33.984824) scale(0.13 -0.13)">
     <defs>
      <path id="DejaVuSans-Bold-26" d="M 4288 256 
Q 3956 84 3597 -3 
Q 3238 -91 2847 -91 
Q 1681 -91 1000 561 
Q 319 1213 319 2328 
Q 319 3447 1000 4098 
Q 1681 4750 2847 4750 
Q 3238 4750 3597 4662 
Q 3956 4575 4288 4403 
L 4288 3438 
Q 3953 3666 3628 3772 
Q 3303 3878 2944 3878 
Q 2300 3878 1931 3465 
Q 1563 3053 1563 2328 
Q 1563 1606 1931 1193 
Q 2300 781 2944 781 
Q 3303 781 3628 887 
Q 3953 994 4288 1222 
L 4288 256 
z
" transform="scale(0.015625)"/>
      <path id="DejaVuSans-Bold-45" d="M 2400 722 
Q 2759 722 2948 984 
Q 3138 1247 3138 1747 
Q 3138 2247 2948 2509 
Q 2759 2772 2400 2772 
Q 2041 2772 1848 2508 
Q 1656 2244 1656 1747 
Q 1656 1250 1848 986 
Q 2041 722 2400 722 
z
M 1656 2988 
Q 1888 3294 2169 3439 
Q 2450 3584 2816 3584 
Q 3463 3584 3878 3070 
Q 4294 2556 4294 1747 
Q 4294 938 3878 423 
Q 3463 -91 2816 -91 
Q 2450 -91 2169 54 
Q 1888 200 1656 506 
L 1656 0 
L 538 0 
L 538 4863 
L 1656 4863 
L 1656 2988 
z
" transform="scale(0.015625)"/>
      <path id="DejaVuSans-Bold-51" d="M 4056 2131 
L 4056 0 
L 2931 0 
L 2931 347 
L 2931 1631 
Q 2931 2084 2911 2256 
Q 2891 2428 2841 2509 
Q 2775 2619 2662 2680 
Q 2550 2741 2406 2741 
Q 2056 2741 1856 2470 
Q 1656 2200 1656 1722 
L 1656 0 
L 538 0 
L 538 3500 
L 1656 3500 
L 1656 2988 
Q 1909 3294 2193 3439 
Q 2478 3584 2822 3584 
Q 3428 3584 3742 3212 
Q 4056 2841 4056 2131 
z
" transform="scale(0.015625)"/>
      <path id="DejaVuSans-Oblique-24" d="M 2356 4666 
L 3072 4666 
L 3938 0 
L 3278 0 
L 3084 1197 
L 984 1197 
L 325 0 
L -341 0 
L 2356 4666 
z
M 2584 4044 
L 1275 1722 
L 2988 1722 
L 2584 4044 
z
" transform="scale(0.015625)"/>
      <path id="DejaVuSans-Oblique-51" d="M 3566 2113 
L 3156 0 
L 2578 0 
L 2988 2091 
Q 3016 2238 3031 2350 
Q 3047 2463 3047 2528 
Q 3047 2791 2881 2937 
Q 2716 3084 2419 3084 
Q 1956 3084 1622 2776 
Q 1288 2469 1184 1941 
L 800 0 
L 225 0 
L 903 3500 
L 1478 3500 
L 1363 2950 
Q 1603 3253 1940 3418 
Q 2278 3584 2650 3584 
Q 3113 3584 3367 3334 
Q 3622 3084 3622 2631 
Q 3622 2519 3608 2391 
Q 3594 2263 3566 2113 
z
" transform="scale(0.015625)"/>
      <path id="DejaVuSans-Oblique-52" d="M 1625 -91 
Q 1009 -91 651 289 
Q 294 669 294 1325 
Q 294 1706 417 2101 
Q 541 2497 738 2766 
Q 1047 3184 1428 3384 
Q 1809 3584 2291 3584 
Q 2888 3584 3255 3212 
Q 3622 2841 3622 2241 
Q 3622 1825 3500 1412 
Q 3378 1000 3181 728 
Q 2875 309 2494 109 
Q 2113 -91 1625 -91 
z
M 891 1344 
Q 891 869 1089 633 
Q 1288 397 1691 397 
Q 2269 397 2648 901 
Q 3028 1406 3028 2181 
Q 3028 2634 2825 2865 
Q 2622 3097 2228 3097 
Q 1903 3097 1650 2945 
Q 1397 2794 1197 2484 
Q 1050 2253 970 1956 
Q 891 1659 891 1344 
z
" transform="scale(0.015625)"/>
      <path id="DejaVuSans-Oblique-4f" d="M 1172 4863 
L 1747 4863 
L 800 0 
L 225 0 
L 1172 4863 
z
" transform="scale(0.015625)"/>
      <path id="DejaVuSans-Oblique-4c" d="M 1172 4863 
L 1747 4863 
L 1606 4134 
L 1031 4134 
L 1172 4863 
z
M 909 3500 
L 1484 3500 
L 800 0 
L 225 0 
L 909 3500 
z
" transform="scale(0.015625)"/>
      <path id="DejaVuSans-Oblique-56" d="M 3200 3397 
L 3091 2853 
Q 2863 2978 2609 3040 
Q 2356 3103 2088 3103 
Q 1634 3103 1373 2948 
Q 1113 2794 1113 2528 
Q 1113 2219 1719 2053 
Q 1766 2041 1788 2034 
L 1972 1978 
Q 2547 1819 2739 1644 
Q 2931 1469 2931 1166 
Q 2931 609 2489 259 
Q 2047 -91 1331 -91 
Q 1053 -91 747 -37 
Q 441 16 72 128 
L 184 722 
Q 500 559 806 475 
Q 1113 391 1394 391 
Q 1816 391 2080 572 
Q 2344 753 2344 1031 
Q 2344 1331 1650 1516 
L 1591 1531 
L 1394 1581 
Q 956 1697 753 1886 
Q 550 2075 550 2369 
Q 550 2928 970 3256 
Q 1391 3584 2113 3584 
Q 2397 3584 2667 3537 
Q 2938 3491 3200 3397 
z
" transform="scale(0.015625)"/>
      <path id="DejaVuSans-Bold-27" d="M 1791 3756 
L 1791 909 
L 2222 909 
Q 2959 909 3348 1275 
Q 3738 1641 3738 2338 
Q 3738 3031 3350 3393 
Q 2963 3756 2222 3756 
L 1791 3756 
z
M 588 4666 
L 1856 4666 
Q 2919 4666 3439 4514 
Q 3959 4363 4331 4000 
Q 4659 3684 4818 3271 
Q 4978 2859 4978 2338 
Q 4978 1809 4818 1395 
Q 4659 981 4331 666 
Q 3956 303 3431 151 
Q 2906 0 1856 0 
L 588 0 
L 588 4666 
z
" transform="scale(0.015625)"/>
      <path id="DejaVuSans-Bold-31" d="M 588 4666 
L 1931 4666 
L 3628 1466 
L 3628 4666 
L 4769 4666 
L 4769 0 
L 3425 0 
L 1728 3200 
L 1728 0 
L 588 0 
L 588 4666 
z
" transform="scale(0.015625)"/>
      <path id="DejaVuSans-Bold-24" d="M 3419 850 
L 1538 850 
L 1241 0 
L 31 0 
L 1759 4666 
L 3194 4666 
L 4922 0 
L 3713 0 
L 3419 850 
z
M 1838 1716 
L 3116 1716 
L 2478 3572 
L 1838 1716 
z
" transform="scale(0.015625)"/>
     </defs>
     <use xlink:href="#DejaVuSans-Bold-26" transform="translate(0 0.015625)"/>
     <use xlink:href="#DejaVuSans-Bold-44" transform="translate(73.388672 0.015625)"/>
     <use xlink:href="#DejaVuSans-Bold-55" transform="translate(140.869141 0.015625)"/>
     <use xlink:href="#DejaVuSans-Bold-4c" transform="translate(190.185547 0.015625)"/>
     <use xlink:href="#DejaVuSans-Bold-45" transform="translate(224.462891 0.015625)"/>
     <use xlink:href="#DejaVuSans-Bold-45" transform="translate(296.044922 0.015625)"/>
     <use xlink:href="#DejaVuSans-Bold-48" transform="translate(367.626953 0.015625)"/>
     <use xlink:href="#DejaVuSans-Bold-44" transform="translate(435.449219 0.015625)"/>
     <use xlink:href="#DejaVuSans-Bold-51" transform="translate(502.929688 0.015625)"/>
     <use xlink:href="#DejaVuSans-Bold-3" transform="translate(574.121094 0.015625)"/>
     <use xlink:href="#DejaVuSans-Oblique-24" transform="translate(608.935547 0.015625)"/>
     <use xlink:href="#DejaVuSans-Oblique-51" transform="translate(677.34375 0.015625)"/>
     <use xlink:href="#DejaVuSans-Oblique-52" transform="translate(740.722656 0.015625)"/>
     <use xlink:href="#DejaVuSans-Oblique-4f" transform="translate(801.904297 0.015625)"/>
     <use xlink:href="#DejaVuSans-Oblique-4c" transform="translate(829.6875 0.015625)"/>
     <use xlink:href="#DejaVuSans-Oblique-56" transform="translate(857.470703 0.015625)"/>
     <use xlink:href="#DejaVuSans-Bold-3" transform="translate(909.570312 0.015625)"/>
     <use xlink:href="#DejaVuSans-Bold-50" transform="translate(944.384766 0.015625)"/>
     <use xlink:href="#DejaVuSans-Bold-57" transform="translate(1048.583984 0.015625)"/>
     <use xlink:href="#DejaVuSans-Bold-27" transform="translate(1096.386719 0.015625)"/>
     <use xlink:href="#DejaVuSans-Bold-31" transform="translate(1179.394531 0.015625)"/>
     <use xlink:href="#DejaVuSans-Bold-24" transform="translate(1263.085938 0.015625)"/>
    </g>
   </g>
   <g id="legend_1">
    <g id="patch_4">
     <path d="M 42.628 303.833637 
L 182.480969 303.833637 
Q 184.280969 303.833637 184.280969 302.033637 
L 184.280969 220.92934 
Q 184.280969 219.12934 182.480969 219.12934 
L 42.628 219.12934 
Q 40.828 219.12934 40.828 220.92934 
L 40.828 302.033637 
Q 40.828 303.833637 42.628 303.833637 
z
" style="fill: #ffffff; opacity: 0.8; stroke: #cccccc; stroke-linejoin: miter"/>
    </g>
    <g id="text_32">
     <!-- Ecomorph -->
     <g transform="translate(87.258391 230.327778) scale(0.1 -0.1)">
      <defs>
       <path id="DejaVuSans-28" d="M 628 4666 
L 3578 4666 
L 3578 4134 
L 1259 4134 
L 1259 2753 
L 3481 2753 
L 3481 2222 
L 1259 2222 
L 1259 531 
L 3634 531 
L 3634 0 
L 628 0 
L 628 4666 
z
" transform="scale(0.015625)"/>
       <path id="DejaVuSans-46" d="M 3122 3366 
L 3122 2828 
Q 2878 2963 2633 3030 
Q 2388 3097 2138 3097 
Q 1578 3097 1268 2742 
Q 959 2388 959 1747 
Q 959 1106 1268 751 
Q 1578 397 2138 397 
Q 2388 397 2633 464 
Q 2878 531 3122 666 
L 3122 134 
Q 2881 22 2623 -34 
Q 2366 -91 2075 -91 
Q 1284 -91 818 406 
Q 353 903 353 1747 
Q 353 2603 823 3093 
Q 1294 3584 2113 3584 
Q 2378 3584 2631 3529 
Q 2884 3475 3122 3366 
z
" transform="scale(0.015625)"/>
       <path id="DejaVuSans-50" d="M 3328 2828 
Q 3544 3216 3844 3400 
Q 4144 3584 4550 3584 
Q 5097 3584 5394 3201 
Q 5691 2819 5691 2113 
L 5691 0 
L 5113 0 
L 5113 2094 
Q 5113 2597 4934 2840 
Q 4756 3084 4391 3084 
Q 3944 3084 3684 2787 
Q 3425 2491 3425 1978 
L 3425 0 
L 2847 0 
L 2847 2094 
Q 2847 2600 2669 2842 
Q 2491 3084 2119 3084 
Q 1678 3084 1418 2786 
Q 1159 2488 1159 1978 
L 1159 0 
L 581 0 
L 581 3500 
L 1159 3500 
L 1159 2956 
Q 1356 3278 1631 3431 
Q 1906 3584 2284 3584 
Q 2666 3584 2933 3390 
Q 3200 3197 3328 2828 
z
" transform="scale(0.015625)"/>
       <path id="DejaVuSans-4b" d="M 3513 2113 
L 3513 0 
L 2938 0 
L 2938 2094 
Q 2938 2591 2744 2837 
Q 2550 3084 2163 3084 
Q 1697 3084 1428 2787 
Q 1159 2491 1159 1978 
L 1159 0 
L 581 0 
L 581 4863 
L 1159 4863 
L 1159 2956 
Q 1366 3272 1645 3428 
Q 1925 3584 2291 3584 
Q 2894 3584 3203 3211 
Q 3513 2838 3513 2113 
z
" transform="scale(0.015625)"/>
      </defs>
      <use xlink:href="#DejaVuSans-28"/>
      <use xlink:href="#DejaVuSans-46" transform="translate(63.1875 0)"/>
      <use xlink:href="#DejaVuSans-52" transform="translate(118.171875 0)"/>
      <use xlink:href="#DejaVuSans-50" transform="translate(179.359375 0)"/>
      <use xlink:href="#DejaVuSans-52" transform="translate(276.765625 0)"/>
      <use xlink:href="#DejaVuSans-55" transform="translate(337.953125 0)"/>
      <use xlink:href="#DejaVuSans-53" transform="translate(379.0625 0)"/>
      <use xlink:href="#DejaVuSans-4b" transform="translate(442.546875 0)"/>
     </g>
    </g>
    <g id="line2d_6">
     <path d="M 44.428 240.918715 
L 53.428 240.918715 
L 62.428 240.918715 
" style="fill: none; stroke: #2ca02c; stroke-width: 3; stroke-linecap: square"/>
    </g>
    <g id="text_33">
     <!-- Trunk-crown -->
     <g transform="translate(69.628 244.068715) scale(0.09 -0.09)">
      <defs>
       <path id="DejaVuSans-37" d="M -19 4666 
L 3928 4666 
L 3928 4134 
L 2272 4134 
L 2272 0 
L 1638 0 
L 1638 4134 
L -19 4134 
L -19 4666 
z
" transform="scale(0.015625)"/>
       <path id="DejaVuSans-4e" d="M 581 4863 
L 1159 4863 
L 1159 1991 
L 2875 3500 
L 3609 3500 
L 1753 1863 
L 3688 0 
L 2938 0 
L 1159 1709 
L 1159 0 
L 581 0 
L 581 4863 
z
" transform="scale(0.015625)"/>
       <path id="DejaVuSans-10" d="M 313 2009 
L 1997 2009 
L 1997 1497 
L 313 1497 
L 313 2009 
z
" transform="scale(0.015625)"/>
       <path id="DejaVuSans-5a" d="M 269 3500 
L 844 3500 
L 1563 769 
L 2278 3500 
L 2956 3500 
L 3675 769 
L 4391 3500 
L 4966 3500 
L 4050 0 
L 3372 0 
L 2619 2869 
L 1863 0 
L 1184 0 
L 269 3500 
z
" transform="scale(0.015625)"/>
      </defs>
      <use xlink:href="#DejaVuSans-37"/>
      <use xlink:href="#DejaVuSans-55" transform="translate(46.375 0)"/>
      <use xlink:href="#DejaVuSans-58" transform="translate(87.484375 0)"/>
      <use xlink:href="#DejaVuSans-51" transform="translate(150.859375 0)"/>
      <use xlink:href="#DejaVuSans-4e" transform="translate(214.234375 0)"/>
      <use xlink:href="#DejaVuSans-10" transform="translate(272.140625 0)"/>
      <use xlink:href="#DejaVuSans-46" transform="translate(308.21875 0)"/>
      <use xlink:href="#DejaVuSans-55" transform="translate(363.203125 0)"/>
      <use xlink:href="#DejaVuSans-52" transform="translate(402.109375 0)"/>
      <use xlink:href="#DejaVuSans-5a" transform="translate(463.296875 0)"/>
      <use xlink:href="#DejaVuSans-51" transform="translate(545.078125 0)"/>
     </g>
    </g>
    <g id="line2d_7">
     <path d="M 44.428 254.419418 
L 53.428 254.419418 
L 62.428 254.419418 
" style="fill: none; stroke: #d62728; stroke-width: 3; stroke-linecap: square"/>
    </g>
    <g id="text_34">
     <!-- Twig -->
     <g transform="translate(69.628 257.569418) scale(0.09 -0.09)">
      <defs>
       <path id="DejaVuSans-4a" d="M 2906 1791 
Q 2906 2416 2648 2759 
Q 2391 3103 1925 3103 
Q 1463 3103 1205 2759 
Q 947 2416 947 1791 
Q 947 1169 1205 825 
Q 1463 481 1925 481 
Q 2391 481 2648 825 
Q 2906 1169 2906 1791 
z
M 3481 434 
Q 3481 -459 3084 -895 
Q 2688 -1331 1869 -1331 
Q 1566 -1331 1297 -1286 
Q 1028 -1241 775 -1147 
L 775 -588 
Q 1028 -725 1275 -790 
Q 1522 -856 1778 -856 
Q 2344 -856 2625 -561 
Q 2906 -266 2906 331 
L 2906 616 
Q 2728 306 2450 153 
Q 2172 0 1784 0 
Q 1141 0 747 490 
Q 353 981 353 1791 
Q 353 2603 747 3093 
Q 1141 3584 1784 3584 
Q 2172 3584 2450 3431 
Q 2728 3278 2906 2969 
L 2906 3500 
L 3481 3500 
L 3481 434 
z
" transform="scale(0.015625)"/>
      </defs>
      <use xlink:href="#DejaVuSans-37"/>
      <use xlink:href="#DejaVuSans-5a" transform="translate(44.53125 0)"/>
      <use xlink:href="#DejaVuSans-4c" transform="translate(126.3125 0)"/>
      <use xlink:href="#DejaVuSans-4a" transform="translate(154.09375 0)"/>
     </g>
    </g>
    <g id="line2d_8">
     <path d="M 44.428 267.920121 
L 53.428 267.920121 
L 62.428 267.920121 
" style="fill: none; stroke: #8c564b; stroke-width: 3; stroke-linecap: square"/>
    </g>
    <g id="text_35">
     <!-- Trunk-ground -->
     <g transform="translate(69.628 271.070121) scale(0.09 -0.09)">
      <defs>
       <path id="DejaVuSans-47" d="M 2906 2969 
L 2906 4863 
L 3481 4863 
L 3481 0 
L 2906 0 
L 2906 525 
Q 2725 213 2448 61 
Q 2172 -91 1784 -91 
Q 1150 -91 751 415 
Q 353 922 353 1747 
Q 353 2572 751 3078 
Q 1150 3584 1784 3584 
Q 2172 3584 2448 3432 
Q 2725 3281 2906 2969 
z
M 947 1747 
Q 947 1113 1208 752 
Q 1469 391 1925 391 
Q 2381 391 2643 752 
Q 2906 1113 2906 1747 
Q 2906 2381 2643 2742 
Q 2381 3103 1925 3103 
Q 1469 3103 1208 2742 
Q 947 2381 947 1747 
z
" transform="scale(0.015625)"/>
      </defs>
      <use xlink:href="#DejaVuSans-37"/>
      <use xlink:href="#DejaVuSans-55" transform="translate(46.375 0)"/>
      <use xlink:href="#DejaVuSans-58" transform="translate(87.484375 0)"/>
      <use xlink:href="#DejaVuSans-51" transform="translate(150.859375 0)"/>
      <use xlink:href="#DejaVuSans-4e" transform="translate(214.234375 0)"/>
      <use xlink:href="#DejaVuSans-10" transform="translate(272.140625 0)"/>
      <use xlink:href="#DejaVuSans-4a" transform="translate(308.21875 0)"/>
      <use xlink:href="#DejaVuSans-55" transform="translate(371.703125 0)"/>
      <use xlink:href="#DejaVuSans-52" transform="translate(410.609375 0)"/>
      <use xlink:href="#DejaVuSans-58" transform="translate(471.796875 0)"/>
      <use xlink:href="#DejaVuSans-51" transform="translate(535.171875 0)"/>
      <use xlink:href="#DejaVuSans-47" transform="translate(598.546875 0)"/>
     </g>
    </g>
    <g id="line2d_9">
     <path d="M 44.428 281.420825 
L 53.428 281.420825 
L 62.428 281.420825 
" style="fill: none; stroke: #e8b800; stroke-width: 3; stroke-linecap: square"/>
    </g>
    <g id="text_36">
     <!-- Grass-bush -->
     <g transform="translate(69.628 284.570825) scale(0.09 -0.09)">
      <defs>
       <path id="DejaVuSans-2a" d="M 3809 666 
L 3809 1919 
L 2778 1919 
L 2778 2438 
L 4434 2438 
L 4434 434 
Q 4069 175 3628 42 
Q 3188 -91 2688 -91 
Q 1594 -91 976 548 
Q 359 1188 359 2328 
Q 359 3472 976 4111 
Q 1594 4750 2688 4750 
Q 3144 4750 3555 4637 
Q 3966 4525 4313 4306 
L 4313 3634 
Q 3963 3931 3569 4081 
Q 3175 4231 2741 4231 
Q 1884 4231 1454 3753 
Q 1025 3275 1025 2328 
Q 1025 1384 1454 906 
Q 1884 428 2741 428 
Q 3075 428 3337 486 
Q 3600 544 3809 666 
z
" transform="scale(0.015625)"/>
      </defs>
      <use xlink:href="#DejaVuSans-2a"/>
      <use xlink:href="#DejaVuSans-55" transform="translate(77.484375 0)"/>
      <use xlink:href="#DejaVuSans-44" transform="translate(118.59375 0)"/>
      <use xlink:href="#DejaVuSans-56" transform="translate(179.875 0)"/>
      <use xlink:href="#DejaVuSans-56" transform="translate(231.96875 0)"/>
      <use xlink:href="#DejaVuSans-10" transform="translate(284.0625 0)"/>
      <use xlink:href="#DejaVuSans-45" transform="translate(320.140625 0)"/>
      <use xlink:href="#DejaVuSans-58" transform="translate(383.625 0)"/>
      <use xlink:href="#DejaVuSans-56" transform="translate(447 0)"/>
      <use xlink:href="#DejaVuSans-4b" transform="translate(499.09375 0)"/>
     </g>
    </g>
    <g id="line2d_10">
     <path d="M 44.428 294.921528 
L 53.428 294.921528 
L 62.428 294.921528 
" style="fill: none; stroke: #555555; stroke-width: 3; stroke-linecap: square"/>
    </g>
    <g id="text_37">
     <!-- Outgroup (Leiocephalus) -->
     <g transform="translate(69.628 298.071528) scale(0.09 -0.09)">
      <defs>
       <path id="DejaVuSans-32" d="M 2522 4238 
Q 1834 4238 1429 3725 
Q 1025 3213 1025 2328 
Q 1025 1447 1429 934 
Q 1834 422 2522 422 
Q 3209 422 3611 934 
Q 4013 1447 4013 2328 
Q 4013 3213 3611 3725 
Q 3209 4238 2522 4238 
z
M 2522 4750 
Q 3503 4750 4090 4092 
Q 4678 3434 4678 2328 
Q 4678 1225 4090 567 
Q 3503 -91 2522 -91 
Q 1538 -91 948 565 
Q 359 1222 359 2328 
Q 359 3434 948 4092 
Q 1538 4750 2522 4750 
z
" transform="scale(0.015625)"/>
       <path id="DejaVuSans-b" d="M 1984 4856 
Q 1566 4138 1362 3434 
Q 1159 2731 1159 2009 
Q 1159 1288 1364 580 
Q 1569 -128 1984 -844 
L 1484 -844 
Q 1016 -109 783 600 
Q 550 1309 550 2009 
Q 550 2706 781 3412 
Q 1013 4119 1484 4856 
L 1984 4856 
z
" transform="scale(0.015625)"/>
       <path id="DejaVuSans-2f" d="M 628 4666 
L 1259 4666 
L 1259 531 
L 3531 531 
L 3531 0 
L 628 0 
L 628 4666 
z
" transform="scale(0.015625)"/>
       <path id="DejaVuSans-4f" d="M 603 4863 
L 1178 4863 
L 1178 0 
L 603 0 
L 603 4863 
z
" transform="scale(0.015625)"/>
       <path id="DejaVuSans-c" d="M 513 4856 
L 1013 4856 
Q 1481 4119 1714 3412 
Q 1947 2706 1947 2009 
Q 1947 1309 1714 600 
Q 1481 -109 1013 -844 
L 513 -844 
Q 928 -128 1133 580 
Q 1338 1288 1338 2009 
Q 1338 2731 1133 3434 
Q 928 4138 513 4856 
z
" transform="scale(0.015625)"/>
      </defs>
      <use xlink:href="#DejaVuSans-32"/>
      <use xlink:href="#DejaVuSans-58" transform="translate(78.71875 0)"/>
      <use xlink:href="#DejaVuSans-57" transform="translate(142.09375 0)"/>
      <use xlink:href="#DejaVuSans-4a" transform="translate(181.296875 0)"/>
      <use xlink:href="#DejaVuSans-55" transform="translate(244.78125 0)"/>
      <use xlink:href="#DejaVuSans-52" transform="translate(283.6875 0)"/>
      <use xlink:href="#DejaVuSans-58" transform="translate(344.875 0)"/>
      <use xlink:href="#DejaVuSans-53" transform="translate(408.25 0)"/>
      <use xlink:href="#DejaVuSans-3" transform="translate(471.734375 0)"/>
      <use xlink:href="#DejaVuSans-b" transform="translate(503.515625 0)"/>
      <use xlink:href="#DejaVuSans-2f" transform="translate(542.53125 0)"/>
      <use xlink:href="#DejaVuSans-48" transform="translate(596.5 0)"/>
      <use xlink:href="#DejaVuSans-4c" transform="translate(658.03125 0)"/>
      <use xlink:href="#DejaVuSans-52" transform="translate(685.8125 0)"/>
      <use xlink:href="#DejaVuSans-46" transform="translate(747 0)"/>
      <use xlink:href="#DejaVuSans-48" transform="translate(801.984375 0)"/>
      <use xlink:href="#DejaVuSans-53" transform="translate(863.515625 0)"/>
      <use xlink:href="#DejaVuSans-4b" transform="translate(927 0)"/>
      <use xlink:href="#DejaVuSans-44" transform="translate(990.375 0)"/>
      <use xlink:href="#DejaVuSans-4f" transform="translate(1051.65625 0)"/>
      <use xlink:href="#DejaVuSans-58" transform="translate(1079.4375 0)"/>
      <use xlink:href="#DejaVuSans-56" transform="translate(1142.8125 0)"/>
      <use xlink:href="#DejaVuSans-c" transform="translate(1194.90625 0)"/>
     </g>
    </g>
   </g>
  </g>
 </g>
 <defs>
  <clipPath id="pc1a5119ee6">
   <rect x="21.2" y="39.984824" width="756.4" height="381.890801"/>
  </clipPath>
 </defs>
</svg>
